<svg width="116" height="116" xmlns="http://www.w3.org/2000/svg" xmlns:xlink="http://www.w3.org/1999/xlink"><defs><linearGradient x1="50%" y1="0%" x2="50%" y2="97.244%" id="a"><stop stop-color="#FFF" offset="0%"/><stop stop-color="#D0DDF0" offset="100%"/></linearGradient><linearGradient x1="50%" y1="0%" x2="50%" y2="100%" id="c"><stop stop-color="#89BEE5" offset="0%"/><stop stop-color="#3172B9" offset="100%"/></linearGradient><linearGradient x1="50%" y1="0%" x2="50%" y2="100%" id="d"><stop stop-color="#3172B9" offset="0%"/><stop stop-color="#89BEE5" offset="100%"/></linearGradient><linearGradient x1="50%" y1="0%" x2="50%" y2="100%" id="e"><stop stop-color="#F3F6FF" offset="0%"/><stop stop-color="#90ACD4" offset="100%"/></linearGradient><linearGradient x1="50%" y1="0%" x2="50%" y2="100%" id="f"><stop stop-color="#90ACD4" offset="0%"/><stop stop-color="#F3F6FF" offset="100%"/></linearGradient><linearGradient x1="50%" y1="0%" x2="50%" y2="100%" id="g"><stop stop-color="#FFF" offset="0%"/><stop stop-color="#E4DBF1" offset="100%"/></linearGradient><linearGradient x1="50%" y1="0%" x2="50%" y2="100%" id="i"><stop stop-color="#EAF1F3" offset="0%"/><stop stop-color="#DEE8F5" offset="100%"/></linearGradient><linearGradient x1="50%" y1="0%" x2="50%" y2="100%" id="j"><stop stop-color="#ADD4E0" offset="0%"/><stop stop-color="#D9E8F2" offset="100%"/></linearGradient><linearGradient x1="50%" y1="0%" x2="50%" y2="100%" id="k"><stop stop-color="#E6EFF1" offset="0%"/><stop stop-color="#B1D3EB" offset="100%"/></linearGradient><linearGradient x1="50%" y1="0%" x2="50%" y2="99.33%" id="l"><stop stop-color="#C6D9E6" offset="0%"/><stop stop-color="#D7E4EE" offset="100%"/></linearGradient><linearGradient x1="50%" y1="32.18%" x2="96.307%" y2="70.648%" id="m"><stop stop-color="#B6D5EC" offset="0%"/><stop stop-color="#DAE7F2" offset="100%"/></linearGradient><path d="m58 9.784-.001.428 40.988 22.68v51.284L57.613 61.28 16.24 84.176V32.892l40.986-22.68v-.428l.387.214.387-.214Zm-.773 1.311L17.013 33.348v49.516l40.214-22.252V11.095Zm.773 0v49.517l40.213 22.252V33.348L58 11.095Z" id="b"/><path d="M98.987 32.597v51.284l-40.988 22.68.001.428-.387-.215-.386.215-.001-.429L16.24 83.881V32.597L57.613 55.49l41.374-22.893Zm-.774 1.312L58 56.16v49.516l40.213-22.252V33.909Zm-81.2 0v49.516l40.214 22.252V56.161L17.013 33.909Z" id="h"/></defs><g fill="none" fill-rule="evenodd"><circle cx="58" cy="58" r="58"/><g fill-rule="nonzero"><use fill="url(#a)" xlink:href="#b"/><use fill="#FFF" xlink:href="#b"/></g><path fill="#3172B9" d="m25 44 36-20h2l-2 38-35 21-1-1z"/><path fill="url(#c)" d="m26 45 37-21v38L26 83z"/><path fill="url(#d)" d="m26 48 37-21v35L26 83z"/><path fill="#3172B9" d="m29 51 28-16v22L29 73z"/><path d="m35.488 52.71 14.289-8.518a1 1 0 0 1 .483-.14L52 44l-1.826 20.695L49 78 36 88l-.707-.707a1 1 0 0 1-.293-.707V53.568a1 1 0 0 1 .488-.859Z" fill="#90ACD4"/><path d="m36.255 52.915.445-.25L52 44.06v34.356a1 1 0 0 1-.51.872L36 88V53.351a.5.5 0 0 1 .255-.436Z" fill="url(#e)"/><path fill="url(#f)" d="m36 55 16-9v31l-16 9z"/><path d="M41.129 63.637c.153.164.258.367.305.586l.026.124a3.862 3.862 0 0 1-1.145 3.63 1.238 1.238 0 0 1-2.055-.65l-.026-.123a3.862 3.862 0 0 1 1.145-3.63 1.238 1.238 0 0 1 1.75.063Zm4.414-2.406c.153.165.258.367.305.587l.026.124a3.862 3.862 0 0 1-1.145 3.629 1.238 1.238 0 0 1-2.055-.649l-.026-.124a3.862 3.862 0 0 1 1.145-3.629 1.238 1.238 0 0 1 1.75.062Zm-4.414-3.594c.153.164.258.367.305.586l.026.124a3.862 3.862 0 0 1-1.145 3.63 1.238 1.238 0 0 1-2.055-.65l-.026-.123a3.862 3.862 0 0 1 1.145-3.63 1.238 1.238 0 0 1 1.75.063Zm4.414-2.406c.153.165.258.367.305.587l.026.124a3.862 3.862 0 0 1-1.145 3.629 1.238 1.238 0 0 1-2.055-.649l-.026-.124a3.862 3.862 0 0 1 1.145-3.629 1.238 1.238 0 0 1 1.75.062Zm4.423-2.155c.152.164.258.367.305.586l.026.124a3.862 3.862 0 0 1-1.146 3.63 1.238 1.238 0 0 1-2.054-.65l-.027-.123a3.862 3.862 0 0 1 1.146-3.63 1.238 1.238 0 0 1 1.75.063Z" fill="#90ACD4"/><path d="M59.262 27.035c.204.004.364.338.357.747-.007.41-.178.738-.383.734-.204-.003-.364-.338-.357-.747.007-.409.178-.737.383-.734Zm1.5-.847c.204.003.364.338.357.747-.007.409-.179.737-.383.734-.205-.004-.365-.338-.358-.747.008-.41.18-.738.384-.734Zm1.5-.848c.204.004.364.338.357.747-.007.41-.179.738-.383.734-.205-.003-.365-.338-.358-.747.007-.409.179-.737.383-.734Z" fill="#508DC9"/><g fill-rule="nonzero"><use fill="url(#g)" xlink:href="#h"/><use fill="#FFF" xlink:href="#h"/></g><path fill="#7EB4E8" d="m70.107 89.72-1.547-.773 1.933-15.467 2.32 1.933z"/><path fill="#9FCFDF" d="m81.707 59.173 11.6-4.64 1.16.387-12.374 5.027z"/><path fill="url(#i)" d="m1.547 22.427 10.44-8.12L16.627.773l4.64 8.12 10.44-4.253-7.347 13.92 1.933 10.053h-9.666L7.347 39.44l1.546-12.76z" transform="translate(62.76 50.28)"/><path d="m31.707 4.64-6.26 11.86-3.794 5.927L31.43 4.752l.277-.112Z" fill="url(#j)" transform="translate(62.76 50.28)"/><path d="m16.56.967 5.093 21.46-10.001-7.86.335-.26L16.56.967Z" fill="url(#k)" transform="translate(62.76 50.28)"/><path d="M21.653 22.427 8.893 26.68l-7.346-4.253h20.106Z" fill="url(#l)" transform="translate(62.76 50.28)"/><path d="m21.653 22.427 4.572 6.186h-9.52l4.948-6.186Z" fill="url(#m)" transform="translate(62.76 50.28)"/><path fill="#B3D5EA" d="m64.307 72.707-1.547-.774 10.44-8.12 1.547.774z"/><path fill="#71BEDB" d="m79.387 51.053-1.547-.773-4.64 13.533 1.547.774z"/></g></svg>