<svg width="116" height="116" xmlns="http://www.w3.org/2000/svg" xmlns:xlink="http://www.w3.org/1999/xlink"><defs><linearGradient x1="50%" y1="0%" x2="50%" y2="97.244%" id="a"><stop stop-color="#FFF" offset="0%"/><stop stop-color="#D0DDF0" offset="100%"/></linearGradient><linearGradient x1="31.192%" y1="-8.777%" x2="100%" y2="55.976%" id="c"><stop stop-color="#89BEE5" offset="0%"/><stop stop-color="#3172B9" offset="100%"/></linearGradient><linearGradient x1="31.854%" y1="-36.928%" x2="96.241%" y2="55.954%" id="d"><stop stop-color="#89BEE5" offset="0%"/><stop stop-color="#3172B9" offset="100%"/></linearGradient><linearGradient x1="12.909%" y1="50%" x2="86.462%" y2="50%" id="e"><stop stop-color="#89BEE5" offset="0%"/><stop stop-color="#3172B9" offset="100%"/></linearGradient><linearGradient x1="50%" y1="0%" x2="50%" y2="100%" id="f"><stop stop-color="#FFF" offset="0%"/><stop stop-color="#E4DBF1" offset="100%"/></linearGradient><linearGradient x1="50%" y1="0%" x2="50%" y2="100%" id="h"><stop stop-color="#EAF1F3" offset="0%"/><stop stop-color="#DEE8F5" offset="100%"/></linearGradient><linearGradient x1="50%" y1="0%" x2="50%" y2="100%" id="i"><stop stop-color="#ADD4E0" offset="0%"/><stop stop-color="#D9E8F2" offset="100%"/></linearGradient><linearGradient x1="50%" y1="0%" x2="50%" y2="100%" id="j"><stop stop-color="#E6EFF1" offset="0%"/><stop stop-color="#B1D3EB" offset="100%"/></linearGradient><linearGradient x1="50%" y1="0%" x2="50%" y2="99.33%" id="k"><stop stop-color="#C6D9E6" offset="0%"/><stop stop-color="#D7E4EE" offset="100%"/></linearGradient><linearGradient x1="50%" y1="32.18%" x2="96.307%" y2="70.648%" id="l"><stop stop-color="#B6D5EC" offset="0%"/><stop stop-color="#DAE7F2" offset="100%"/></linearGradient><path d="m58 9.784-.001.428 40.988 22.68v51.284L57.613 61.28 16.24 84.176V32.892l40.986-22.68v-.428l.387.214.387-.214Zm-.773 1.311L17.013 33.348v49.516l40.214-22.252V11.095Zm.773 0v49.517l40.213 22.252V33.348L58 11.095Z" id="b"/><path d="M98.987 32.597v51.284l-40.988 22.68.001.428-.387-.215-.386.215-.001-.429L16.24 83.881V32.597L57.613 55.49l41.374-22.893Zm-.774 1.312L58 56.16v49.516l40.213-22.252V33.909Zm-81.2 0v49.516l40.214 22.252V56.161L17.013 33.909Z" id="g"/></defs><g fill="none" fill-rule="evenodd"><circle cx="58" cy="58" r="58"/><g fill-rule="nonzero"><use fill="url(#a)" xlink:href="#b"/><use fill="#FFF" xlink:href="#b"/></g><g transform="matrix(-1 0 0 1 74.85 23)"><path d="M18.85 58.265c12.566-.807 18.85-4.744 18.85-11.81 0-10.598-8.44-19.19-18.85-19.19C8.44 27.265 0 35.857 0 46.455c0 7.066 6.283 11.003 18.85 11.81Z" fill="url(#c)"/><ellipse fill="url(#d)" cx="18.85" cy="19.225" rx="10.327" ry="10.514"/><path d="M18.85 22.317c5.703 0 10.327-.996 10.327-6.803S24.553 5 18.85 5C13.146 5 8.522 9.707 8.522 15.514c0 5.807 4.624 6.803 10.328 6.803Z" fill="#214B8A"/><path fill="url(#e)" d="M.85 10.667 17.923 20l17.927-9.778L17.923 0z"/><path d="M17.85 8c.666 0 1 .333 1 1s-.334 1-1 1c-5.334 2.667-8 4.333-8 5v5c1.333 2.667 1.666 4.333 1 5l-2 2c-1.334-1.333-2-2.333-2-3 0-.667.333-2 1-4v-6c0-.667 3.333-2.667 10-6Z" fill="#D7E4F3"/></g><g fill-rule="nonzero"><use fill="url(#f)" xlink:href="#g"/><use fill="#FFF" xlink:href="#g"/></g><path fill="#7EB4E8" d="m70.107 89.72-1.547-.773 1.933-15.467 2.32 1.933z"/><path fill="#9FCFDF" d="m81.707 59.173 11.6-4.64 1.16.387-12.374 5.027z"/><path fill="url(#h)" d="m1.547 22.427 10.44-8.12L16.627.773l4.64 8.12 10.44-4.253-7.347 13.92 1.933 10.053h-9.666L7.347 39.44l1.546-12.76z" transform="translate(62.76 50.28)"/><path d="m31.707 4.64-6.26 11.86-3.794 5.927L31.43 4.752l.277-.112Z" fill="url(#i)" transform="translate(62.76 50.28)"/><path d="m16.56.967 5.093 21.46-10.001-7.86.335-.26L16.56.967Z" fill="url(#j)" transform="translate(62.76 50.28)"/><path d="M21.653 22.427 8.893 26.68l-7.346-4.253h20.106Z" fill="url(#k)" transform="translate(62.76 50.28)"/><path d="m21.653 22.427 4.572 6.186h-9.52l4.948-6.186Z" fill="url(#l)" transform="translate(62.76 50.28)"/><path fill="#B3D5EA" d="m64.307 72.707-1.547-.774 10.44-8.12 1.547.774z"/><path fill="#71BEDB" d="m79.387 51.053-1.547-.773-4.64 13.533 1.547.774z"/></g></svg>