<svg width="116" height="116" xmlns="http://www.w3.org/2000/svg" xmlns:xlink="http://www.w3.org/1999/xlink"><defs><linearGradient x1="50%" y1="0%" x2="50%" y2="97.244%" id="a"><stop stop-color="#FFF" offset="0%"/><stop stop-color="#D0DDF0" offset="100%"/></linearGradient><linearGradient x1="50%" y1="0%" x2="50%" y2="100%" id="c"><stop stop-color="#D7E4F3" offset="0%"/><stop stop-color="#90ACD4" offset="100%"/></linearGradient><linearGradient x1="50%" y1="0%" x2="50%" y2="100%" id="d"><stop stop-color="#6395C9" offset="0%"/><stop stop-color="#214B8A" offset="100%"/></linearGradient><linearGradient x1="50%" y1="0%" x2="50%" y2="97.541%" id="e"><stop stop-color="#89BEE5" offset="0%"/><stop stop-color="#3172B9" offset="100%"/></linearGradient><linearGradient x1="50%" y1="0%" x2="50%" y2="100%" id="f"><stop stop-color="#FFF" offset="0%"/><stop stop-color="#E4DBF1" offset="100%"/></linearGradient><linearGradient x1="50%" y1="0%" x2="50%" y2="100%" id="h"><stop stop-color="#EAF1F3" offset="0%"/><stop stop-color="#DEE8F5" offset="100%"/></linearGradient><linearGradient x1="50%" y1="0%" x2="50%" y2="100%" id="i"><stop stop-color="#ADD4E0" offset="0%"/><stop stop-color="#D9E8F2" offset="100%"/></linearGradient><linearGradient x1="50%" y1="0%" x2="50%" y2="100%" id="j"><stop stop-color="#E6EFF1" offset="0%"/><stop stop-color="#B1D3EB" offset="100%"/></linearGradient><linearGradient x1="50%" y1="0%" x2="50%" y2="99.33%" id="k"><stop stop-color="#C6D9E6" offset="0%"/><stop stop-color="#D7E4EE" offset="100%"/></linearGradient><linearGradient x1="50%" y1="32.18%" x2="96.307%" y2="70.648%" id="l"><stop stop-color="#B6D5EC" offset="0%"/><stop stop-color="#DAE7F2" offset="100%"/></linearGradient><path d="m58 9.784-.001.428 40.988 22.68v51.284L57.613 61.28 16.24 84.176V32.892l40.986-22.68v-.428l.387.214.387-.214Zm-.773 1.311L17.013 33.348v49.516l40.214-22.252V11.095Zm.773 0v49.517l40.213 22.252V33.348L58 11.095Z" id="b"/><path d="M98.987 32.597v51.284l-40.988 22.68.001.428-.387-.215-.386.215-.001-.429L16.24 83.881V32.597L57.613 55.49l41.374-22.893Zm-.774 1.312L58 56.16v49.516l40.213-22.252V33.909Zm-81.2 0v49.516l40.214 22.252V56.161L17.013 33.909Z" id="g"/></defs><g fill="none" fill-rule="evenodd"><circle cx="58" cy="58" r="58"/><g fill-rule="nonzero"><use fill="url(#a)" xlink:href="#b"/><use fill="#FFF" xlink:href="#b"/></g><g fill-rule="nonzero"><path d="m60 24 3 1-1.417 2.832c.118.04.251.063.4.07a.85.85 0 0 1 .497.197c.342.296.53.729.52 1.177l-.011.15a4.308 4.308 0 0 1-1.014 2.622c-.211.26-.458.484-.663.746a4.497 4.497 0 0 0-1.085 2.767 4.463 4.463 0 0 1-1.927 3.628c-.395.349-.94.473-1.446.33a1.65 1.65 0 0 0-1.424.194c-.153.094-.212.544-.24 1.078l-.015.366-.027.909-.017.314c-.024.338-.07.564-.164.551-.478-.064-1.112-.255-1.902-.572l-.55-.23a26.345 26.345 0 0 1-.293-.129 1.125 1.125 0 0 1-.989-.845 2.082 2.082 0 0 1-.087-.831 5.83 5.83 0 0 0 .05-.997c-.05-.658-.398-1.114-.955-1.199l-.123-.012a1.153 1.153 0 0 1-1.05-.941c-.029-.138-.046-.282-.068-.414v-.282l.02-.104a4.46 4.46 0 0 1 1.047-2.482l.171-.2.353-.373a2.77 2.77 0 0 0 .165-.199 4.605 4.605 0 0 0 1.014-2.73 4.423 4.423 0 0 1 1.943-3.597 1.62 1.62 0 0 1 1.621-.281c.198.059.409.059.607 0 .305-.075.591-.21.843-.397a6.231 6.231 0 0 0 1.075-1.102c.38-.474.902-.812 1.49-.963a1.1 1.1 0 0 1 .65-.003L60 24Zm-2.674 8.268c.003-.16-.02-.32-.068-.474a.695.695 0 0 0-.893-.487 1.588 1.588 0 0 0-.612.324 3.1 3.1 0 0 0-1.07 1.84 1.5 1.5 0 0 0 .022.678.707.707 0 0 0 .852.567l.1-.031c.135-.037.264-.096.38-.175a2.993 2.993 0 0 0 1.268-2.05l.02-.192Z" fill="#90ACD4"/><path d="M30.418 19h-.196a1.125 1.125 0 0 1-.989-.845 2.082 2.082 0 0 1-.087-.831 5.83 5.83 0 0 0 .05-.997c-.053-.704-.449-1.178-1.078-1.211a1.153 1.153 0 0 1-1.05-.941c-.029-.138-.046-.282-.068-.414v-.282c0-.034.017-.068.02-.104a4.46 4.46 0 0 1 1.047-2.482c.22-.282.48-.493.689-.772a4.605 4.605 0 0 0 1.014-2.73 4.423 4.423 0 0 1 1.943-3.597 1.62 1.62 0 0 1 1.621-.281c.198.059.409.059.607 0 .305-.075.591-.21.843-.397a6.231 6.231 0 0 0 1.075-1.102c.38-.474.902-.812 1.49-.963a1.106 1.106 0 0 1 1.328.58c.148.321.207.676.171 1.028a5.65 5.65 0 0 0-.048.997c.073.727.416 1.212 1.183 1.245.182.011.357.08.497.198.38.33.57.827.509 1.326a4.308 4.308 0 0 1-1.014 2.623c-.211.26-.458.484-.663.746a4.497 4.497 0 0 0-1.085 2.767 4.463 4.463 0 0 1-1.927 3.628c-.395.349-.94.473-1.446.33a1.65 1.65 0 0 0-1.424.194 4.035 4.035 0 0 0-1.096 1c-.503.633-1.078 1.157-1.916 1.287Zm4.908-9.732c.003-.16-.02-.32-.068-.474a.695.695 0 0 0-.893-.487 1.588 1.588 0 0 0-.612.324 3.1 3.1 0 0 0-1.07 1.84 1.5 1.5 0 0 0 .022.678.707.707 0 0 0 .952.536c.135-.037.264-.096.38-.175a2.993 2.993 0 0 0 1.289-2.242Z" fill="url(#c)" transform="translate(25 24)"/><path d="M44.016 38h.756c.466.28 2.24 1.454 2.228 2 .006.17-.72 1.061.082.78a3.386 3.386 0 0 0 1.427-1.149 3.366 3.366 0 0 1 1.202-.959c.95-.42 3.24 1.294 3.289 2.328 0 .585-1.584-.015-1.81.524a2.801 2.801 0 0 0-.166 1.565c.033.327.22.619.501.785.282.166.626.187.926.056.168-.053.33-.123.485-.206C53.718 43.3 56.595 44.848 57 46c-1.487.142-2.285.332-2.394.57a7.703 7.703 0 0 1-.71 1.077 4.035 4.035 0 0 0-.931 2.533c.02.7.314 1.148.896 1.237.539.058.985.446 1.119.974v.99c-.091.288-.166.575-.285.862a3.953 3.953 0 0 1-1.656 2.062 4.356 4.356 0 0 0-1.824 2.215c-.285.735-.434 1.504 0 2.234a2.31 2.31 0 0 1 .231 1.654 3.68 3.68 0 0 1-.594 1.473c-.633.908-1.324 1.75-2.606 1.657a1.42 1.42 0 0 0-.782.259 3.83 3.83 0 0 0-1.042.927c-.668.862-.879 1.838-.99 2.898a3.919 3.919 0 0 1-2.3 3.257 1.045 1.045 0 0 1-1.377-.261c-.52-.675-1.141-.575-1.712-.253a3.596 3.596 0 0 0-1.47 1.59c-.203.394-.354.816-.571 1.201-.451.802-.097 3.548-1.002 3.844-.335.138-1.665-1.98-1.97-2.176a1.119 1.119 0 0 1-.51-.892c-.038-.288-.046-.555-.09-.83-.125-.81-.721-1.163-1.49-.902a3.331 3.331 0 0 0-1.44 1.131c-.337.432-.003 2.444-.5 2.669-.925.376-2.48-1.827-2.538-2.818a3.811 3.811 0 0 1 .286-1.525 3.43 3.43 0 0 0 .265-1.56c-.091-.907-.168.587-1.013.903-.285.103-2.047-1.421-2.358-1.59a1.148 1.148 0 0 1-.585-.823 2.49 2.49 0 0 1 0-1.057 4.722 4.722 0 0 1 .987-2.07c.605-.779 1.03-1.632 1.005-2.648-.02-.715-.331-1.114-.933-1.258-.771-.184-1.108-.574-1.09-1.353a4.084 4.084 0 0 1 1.952-3.538 4.505 4.505 0 0 0 1.787-2.15c.334-.828.448-1.667-.089-2.476a1.267 1.267 0 0 1-.185-.698c0-1.52.699-2.665 1.864-3.556.276-.23.625-.355.984-.35.985.066 1.636-.474 2.207-1.172.685-.838.913-1.826 1.005-2.892a3.933 3.933 0 0 1 2.08-3.159c.72-.416 1.18-.316 1.742.302a1 1 0 0 0 1.062.31c.43-.12.822-.347 1.141-.66a4.666 4.666 0 0 0 1.142-1.724c.437-1.134 1.15-1.996 2.298-2.438Zm-.248 17.349a3.793 3.793 0 0 0-.314-1.456 1.778 1.778 0 0 0-2.024-1.025c-.498.095-.972.29-1.393.574-1.427.95-2.344 2.298-2.949 3.894a5.738 5.738 0 0 0-.377 2.513c.095 1.172.691 1.913 1.699 2.077a2.41 2.41 0 0 0 1.387-.288 6.115 6.115 0 0 0 2.366-2.01 7.935 7.935 0 0 0 1.605-4.279Z" fill="#3172B9"/><path d="m52 86-1.649-1c-.684-.288-.953-.84-.927-1.573.007-.353.058-.703.151-1.043.12-.386.173-.79.158-1.194-.069-1.078-.34 1.155-.733.81-.632-.554-2.213-1.904-2.385-2.012a1.15 1.15 0 0 1-.522-.784 2.547 2.547 0 0 1-.066-1.05 4.708 4.708 0 0 1 1.03-2.351 5.153 5.153 0 0 0 1.202-2.47c.114-.745.029-1.438-.604-1.947a1.363 1.363 0 0 1-.466-1.017 3.978 3.978 0 0 1 .4-1.967c.447-.966 1.068-1.782 2.078-2.217 1.786-.764 2.61-2.208 2.742-4.065a5.02 5.02 0 0 1 .67-2.32 4.071 4.071 0 0 1 1.842-1.725 1.309 1.309 0 0 1 1.431.166c.308.242.715.312 1.085.187.327-.099.632-.26.898-.474.679-.497 1.085-1.202 1.471-1.926a3.825 3.825 0 0 1 2.004-1.915C62.78 53.75 63 54 65 56c0 .11-.482 1.4.098 1.232.379-.105.731-.29 1.033-.543.283-.24.607-.43.956-.558a1.217 1.217 0 0 1 1.066.055c.329.182 1.786 1.442 1.847 1.814 1 1-1.144.176-1.325.704-.16.449-.35.885-.572 1.306a3.594 3.594 0 0 0-.375 1.874c.06.765.423 1.15 1.17 1.257.292.033.56.176.753.4.17.224 2.29 2.182 2.349 2.459l-2-.85a4.95 4.95 0 0 1-1.774 3.103c-.488.375-.899.84-1.21 1.371-.596 1.018-.948 2.073-.462 3.249.052.153.076.315.072.477.051 1.291-.498 2.343-1.33 3.266-.496.55-1.068 1.004-1.867.952a2.421 2.421 0 0 0-1.868.753 5.146 5.146 0 0 0-1.431 2.467c-.36 1.343.152 4.597-1.13 5.212-.833.4-2.688-2.032-3.057-2.883-.286-.679-.764-.912-1.48-.713a3.186 3.186 0 0 0-1.597 1.187c-.465.643-.124 2.133-.866 2.409Zm3.353-14.734c.008.326.068.65.178.957a1.376 1.376 0 0 0 1.622.929 2.78 2.78 0 0 0 .942-.388 5.974 5.974 0 0 0 2.544-3.988 2.902 2.902 0 0 0-.083-1.438 1.388 1.388 0 0 0-1.631-1.003 2.377 2.377 0 0 0-.761.287c-1.737 1.056-2.57 2.674-2.81 4.644Z" fill="#214B8A"/><path d="M28.015 63h-.664c-.684-.288-.953-.84-.927-1.573.007-.353.058-.703.151-1.043.12-.386.173-.79.158-1.194-.069-1.078-.776-1.552-1.783-1.196-.131.05-.266.091-.404.121a1.14 1.14 0 0 1-.93-.127 1.15 1.15 0 0 1-.523-.784 2.547 2.547 0 0 1-.066-1.05 4.708 4.708 0 0 1 1.03-2.351 5.153 5.153 0 0 0 1.202-2.47c.114-.745.029-1.438-.604-1.947a1.363 1.363 0 0 1-.466-1.017 3.978 3.978 0 0 1 .4-1.967c.447-.966 1.068-1.782 2.078-2.217 1.786-.764 2.61-2.208 2.742-4.065a5.02 5.02 0 0 1 .67-2.32 4.071 4.071 0 0 1 1.842-1.725 1.309 1.309 0 0 1 1.431.166c.308.242.715.312 1.085.187.327-.099.632-.26.898-.474.679-.497 1.085-1.202 1.471-1.926a3.825 3.825 0 0 1 2.004-1.915c.97-.362 1.745.175 1.782 1.216v.334c.006.282.052.562.138.83.18.58.788.908 1.368.74a2.769 2.769 0 0 0 1.033-.544c.283-.24.607-.43.956-.558a1.217 1.217 0 0 1 1.066.055c.329.182.556.505.616.877.12.545.087 1.113-.094 1.641-.16.449-.35.885-.572 1.306a3.594 3.594 0 0 0-.375 1.874c.06.765.423 1.15 1.17 1.257.292.033.56.176.753.4.17.224.29.485.349.761v.848a4.95 4.95 0 0 1-1.774 3.103c-.488.375-.899.84-1.21 1.371-.596 1.018-.948 2.073-.462 3.249.052.153.076.315.072.477.051 1.291-.498 2.343-1.33 3.266-.496.55-1.068 1.004-1.867.952a2.421 2.421 0 0 0-1.868.753 5.146 5.146 0 0 0-1.431 2.467c-.36 1.343-1.08 2.432-2.361 3.048-.833.4-1.457.132-1.826-.72-.286-.678-.764-.91-1.48-.712a3.186 3.186 0 0 0-1.597 1.187A4.009 4.009 0 0 1 28.015 63Zm4.338-13.734c.008.326.068.65.178.957a1.376 1.376 0 0 0 1.622.929 2.78 2.78 0 0 0 .942-.388 5.974 5.974 0 0 0 2.544-3.988 2.902 2.902 0 0 0-.083-1.438 1.388 1.388 0 0 0-1.631-1.003 2.377 2.377 0 0 0-.761.287c-1.737 1.056-2.57 2.674-2.81 4.644Z" fill="url(#d)" transform="translate(25 24)"/><path d="M21.016 16h.756c.466.28.747.79.734 1.335.006.17.024.339.054.506.112.847.72 1.22 1.522.939a3.386 3.386 0 0 0 1.427-1.149 3.366 3.366 0 0 1 1.202-.959c.95-.42 1.772.115 1.82 1.149a4.368 4.368 0 0 1-.342 1.703 2.801 2.801 0 0 0-.165 1.565c.033.327.22.619.501.785.282.166.626.187.926.056.168-.053.33-.123.485-.206.782-.423 1.659-.48 2.064.672v1.065a6.62 6.62 0 0 1-.394 1.109 7.703 7.703 0 0 1-.71 1.077 4.035 4.035 0 0 0-.931 2.533c.02.7.314 1.148.896 1.237.539.058.985.446 1.119.974v.99c-.091.288-.166.575-.285.862a3.953 3.953 0 0 1-1.656 2.062 4.356 4.356 0 0 0-1.824 2.215c-.285.735-.434 1.504 0 2.234a2.31 2.31 0 0 1 .231 1.654 3.68 3.68 0 0 1-.594 1.473c-.633.908-1.324 1.75-2.606 1.657a1.42 1.42 0 0 0-.782.259 3.83 3.83 0 0 0-1.042.927c-.668.862-.879 1.838-.99 2.898a3.919 3.919 0 0 1-2.3 3.257 1.045 1.045 0 0 1-1.377-.261c-.52-.675-1.141-.575-1.712-.253a3.596 3.596 0 0 0-1.47 1.59c-.203.394-.354.816-.571 1.201-.451.802-1.048 1.465-1.953 1.76a1.105 1.105 0 0 1-1.019-.092 1.119 1.119 0 0 1-.51-.892c-.038-.288-.046-.555-.09-.83-.125-.81-.721-1.163-1.49-.902a3.331 3.331 0 0 0-1.44 1.13 3.372 3.372 0 0 1-1.268 1c-.925.376-1.713-.158-1.77-1.149a3.811 3.811 0 0 1 .286-1.525 3.43 3.43 0 0 0 .265-1.56c-.091-.907-.728-1.32-1.573-1.004-.285.103-.522.26-.793.356-.323.144-.694.13-1.005-.039a1.148 1.148 0 0 1-.585-.823 2.49 2.49 0 0 1 0-1.057 4.722 4.722 0 0 1 .987-2.07c.605-.779 1.03-1.632 1.005-2.648-.02-.715-.331-1.114-.933-1.258-.771-.184-1.108-.574-1.09-1.353a4.084 4.084 0 0 1 1.952-3.538 4.505 4.505 0 0 0 1.787-2.15c.334-.828.448-1.667-.089-2.476a1.267 1.267 0 0 1-.185-.698c0-1.52.699-2.665 1.864-3.556.276-.23.625-.355.984-.35.985.066 1.636-.474 2.207-1.172.685-.838.913-1.826 1.005-2.892a3.933 3.933 0 0 1 2.08-3.159c.72-.416 1.18-.316 1.742.302a1 1 0 0 0 1.062.31c.43-.12.822-.347 1.141-.66a4.666 4.666 0 0 0 1.142-1.724c.437-1.134 1.15-1.996 2.298-2.438Zm-.248 17.349a3.793 3.793 0 0 0-.314-1.456 1.778 1.778 0 0 0-2.024-1.025c-.498.095-.972.29-1.393.574-1.427.95-2.344 2.298-2.949 3.894a5.738 5.738 0 0 0-.377 2.513c.095 1.172.691 1.913 1.699 2.077a2.41 2.41 0 0 0 1.387-.288 6.115 6.115 0 0 0 2.366-2.01 7.935 7.935 0 0 0 1.605-4.279Z" fill="url(#e)" transform="translate(25 24)"/></g><g fill-rule="nonzero"><use fill="url(#f)" xlink:href="#g"/><use fill="#FFF" xlink:href="#g"/></g><path fill="#7EB4E8" d="m70.107 89.72-1.547-.773 1.933-15.467 2.32 1.933z"/><path fill="#9FCFDF" d="m81.707 59.173 11.6-4.64 1.16.387-12.374 5.027z"/><path fill="url(#h)" d="m1.547 22.427 10.44-8.12L16.627.773l4.64 8.12 10.44-4.253-7.347 13.92 1.933 10.053h-9.666L7.347 39.44l1.546-12.76z" transform="translate(62.76 50.28)"/><path d="m31.707 4.64-6.26 11.86-3.794 5.927L31.43 4.752l.277-.112Z" fill="url(#i)" transform="translate(62.76 50.28)"/><path d="m16.56.967 5.093 21.46-10.001-7.86.335-.26L16.56.967Z" fill="url(#j)" transform="translate(62.76 50.28)"/><path d="M21.653 22.427 8.893 26.68l-7.346-4.253h20.106Z" fill="url(#k)" transform="translate(62.76 50.28)"/><path d="m21.653 22.427 4.572 6.186h-9.52l4.948-6.186Z" fill="url(#l)" transform="translate(62.76 50.28)"/><path fill="#B3D5EA" d="m64.307 72.707-1.547-.774 10.44-8.12 1.547.774z"/><path fill="#71BEDB" d="m79.387 51.053-1.547-.773-4.64 13.533 1.547.774z"/></g></svg>