<svg width="1860" height="800" viewBox="0 0 1860 800" fill="none" xmlns="http://www.w3.org/2000/svg">
<path d="M1612.12 258.245L1510.1 206.609C1505.07 204.063 1500.87 205.917 1500.87 210.829V241.764L1615.93 285.153V265.761C1615.93 262.67 1614.24 259.317 1612.12 258.245Z" fill="#5BEA83"/>
<path d="M1569.44 358.15L1639.76 358.11C1641.33 358.11 1642.59 355.959 1642.59 353.302V336.584L1563.55 326.419V351.053C1563.55 354.998 1566.22 358.153 1569.44 358.15Z" fill="#5BEA83"/>
<path d="M1500.87 260.149V291.08C1500.87 295.993 1505.07 300.762 1510.1 301.716L1642.59 326.648V309.931C1642.59 307.277 1641.33 304.724 1639.76 304.226L1500.87 260.149Z" fill="#5BEA83"/>
<path d="M347.158 486.168H345.825L345.735 487.505C344.97 499.012 340.672 509.526 333.639 517.11C329.502 521.548 324.441 525.029 318.813 527.308C312.409 529.94 304.999 531.274 296.788 531.274C287.445 531.274 279.004 529.338 271.705 525.511C265.007 522.001 259.243 516.905 254.579 510.354C246.134 498.496 241.484 482.073 241.484 464.097C241.484 446.239 246.134 429.892 254.579 418.062C259.25 411.525 265 406.433 271.705 402.926C279.007 399.104 287.445 397.167 296.788 397.167C311.978 397.167 324.149 401.725 332.96 410.714C341.585 419.507 344.679 430.293 345.76 435.941L345.983 437.106H369.988L369.786 435.493C367.798 419.154 359.855 404.115 347.471 393.244C334.175 381.637 316.653 375.505 296.802 375.505C285.303 375.505 274.447 377.739 264.572 382.143C254.968 386.434 246.402 392.739 239.457 400.628C232.425 408.559 226.959 418.004 223.204 428.697C219.377 439.595 217.436 451.507 217.436 464.097C217.436 476.748 219.377 488.703 223.204 499.636C226.955 510.358 232.425 519.824 239.453 527.774C246.395 535.675 254.963 541.989 264.572 546.284C274.443 550.691 285.289 552.929 296.802 552.929C317.084 552.929 334.681 546.56 347.694 534.515C353.983 528.653 359.083 521.637 362.714 513.85C366.542 505.61 368.935 496.78 369.79 487.738L369.952 486.16H347.158V486.168Z" fill="black"/>
<path d="M949.175 480.391C946.3 474.295 941.988 469.357 936.052 465.251C924.797 457.47 908.694 453.479 890.055 448.857C888.617 448.498 887.223 448.161 885.843 447.824C874.732 445.117 865.137 442.779 858.493 438.605C851.442 434.177 848.294 428.059 848.294 418.768C848.294 412.335 851.299 406.971 856.976 403.256C863.057 399.279 872.177 397.178 883.353 397.178C896.2 397.178 905.719 399.91 912.46 405.536C918.928 410.915 922.795 419.012 924.319 430.236L924.488 431.476H948.456L948.33 429.927C947.612 421.221 945.524 413.318 942.092 406.44C938.813 399.819 934.135 393.986 928.379 389.343C917.164 380.296 901.586 375.516 883.331 375.516C874.074 375.516 865.626 376.592 858.223 378.743C850.986 380.834 844.733 383.935 839.645 387.955C829.547 395.937 824.211 407.408 824.211 421.12C824.211 429.081 826.008 436.181 829.508 442.173C832.609 447.469 837.173 452.113 843.077 455.975C854.044 463.147 868.231 466.84 880.647 469.737C898.399 473.832 911.551 477.121 919.399 482.148C923.151 484.554 925.656 487.297 927.283 490.786C928.911 494.275 929.687 498.592 929.687 504.287C929.687 511.996 926.813 518.483 921.368 523.041C914.846 528.505 904.838 531.288 891.571 531.288C875.339 531.288 862.791 527.44 854.27 519.849C846.832 513.223 842.437 503.752 841.205 491.7L841.072 490.41H817.056L817.15 491.934C818.3 510.77 826.256 526.444 840.148 537.262C853.336 547.528 871.117 552.954 891.564 552.954C901.953 552.954 911.328 551.602 919.478 548.938C927.075 546.453 933.601 542.82 938.883 538.141C943.759 533.847 947.607 528.517 950.145 522.542C952.568 516.765 953.796 510.56 953.757 504.298C953.764 494.713 952.262 486.899 949.175 480.391Z" fill="black"/>
<path d="M1095.65 450.492C1092.6 441.761 1088.17 434.105 1082.48 427.736C1071.34 415.29 1055.86 408.434 1038.86 408.434C1028.52 408.434 1019.31 410.607 1011.46 414.888C1005.96 417.914 1001.07 421.926 997.03 426.722V412.12H973.05V594.532H997.03V534.128C1000.93 539.225 1005.84 543.463 1011.45 546.575C1019.12 550.799 1028.34 552.939 1038.86 552.939C1055.86 552.939 1071.35 546.083 1082.48 533.637C1088.17 527.268 1092.6 519.613 1095.65 510.881C1098.83 501.755 1100.45 491.593 1100.45 480.688C1100.45 469.784 1098.83 459.622 1095.65 450.492ZM1066.28 515.926C1058.99 526.207 1048.59 531.643 1036.22 531.643C1024.46 531.643 1014.58 526.874 1007.65 517.856C1000.73 508.837 997.03 495.953 997.03 480.688C997.03 465.424 1000.7 452.565 1007.65 443.518C1014.6 434.471 1024.46 429.73 1036.22 429.73C1048.59 429.73 1058.99 435.166 1066.28 445.447C1072.85 454.709 1076.47 467.224 1076.47 480.688C1076.47 494.153 1072.85 506.679 1066.28 515.926Z" fill="black"/>
<path d="M1180.7 408.427C1160.82 408.427 1144.18 415.028 1132.59 427.514C1120.84 440.165 1114.62 458.55 1114.62 480.681C1114.62 501.942 1120.8 519.982 1132.51 532.848C1144.45 545.987 1161.48 552.929 1181.74 552.929C1197.91 552.929 1211.62 548.4 1222.45 539.471C1232.05 531.564 1239.06 520.287 1242.75 506.84L1243.24 505.026H1219.14L1218.86 506.101C1217.15 512.302 1213.67 517.874 1208.84 522.137C1201.79 528.427 1192.4 531.615 1180.95 531.615C1167.75 531.615 1156.76 526.827 1149.17 517.78C1142.61 509.963 1138.88 499.303 1138.6 487.62H1244.92V486.186C1244.92 461.684 1239.58 442.528 1229.04 429.253C1218.07 415.448 1201.8 408.427 1180.7 408.427ZM1138.64 466.345C1138.99 456.692 1143.16 447.735 1150.42 440.99C1158.23 433.725 1168.99 429.723 1180.7 429.723C1186.4 429.673 1192.06 430.703 1197.37 432.757C1202.1 434.607 1206.41 437.397 1210.03 440.957C1216.74 447.598 1220.58 456.567 1220.92 466.345H1138.64Z" fill="black"/>
<path d="M1374.46 433.646C1372.23 428.165 1368.76 423.273 1364.32 419.356C1356.18 412.21 1344.87 408.434 1331.62 408.434C1320.92 408.434 1311.25 410.614 1302.87 414.91C1297.31 417.724 1292.34 421.561 1288.21 426.22V412.12H1264.23V549.253H1288.21V464.1C1288.17 459.362 1289.1 454.664 1290.94 450.295C1292.7 446.177 1295.32 442.481 1298.63 439.455C1305.56 433.094 1315.16 429.73 1326.35 429.73C1335.86 429.73 1343.08 432.599 1347.8 438.232C1351.99 443.231 1354.2 450.535 1354.2 459.363V549.253H1378.18V454.096C1378.16 446.472 1376.91 439.591 1374.46 433.646Z" fill="black"/>
<path d="M390.819 358.15H389.382V359.584V547.819V549.253H390.819H411.927H413.365V547.819V359.584V358.15H411.927H390.819Z" fill="black"/>
<path d="M498.725 408.427C478.842 408.427 462.204 415.028 450.608 427.514C438.861 440.165 432.641 458.55 432.641 480.681C432.641 501.942 438.825 519.982 450.526 532.848C462.474 545.987 479.504 552.929 499.757 552.929C515.927 552.929 529.644 548.4 540.478 539.471C550.069 531.564 557.087 520.287 560.771 506.84L561.267 505.026H537.161L536.885 506.101C535.173 512.302 531.692 517.874 526.866 522.137C519.812 528.427 510.422 531.615 498.966 531.615C485.771 531.615 474.782 526.827 467.189 517.78C460.634 509.963 456.908 499.303 456.627 487.62H562.931V486.186C562.931 461.684 557.591 442.528 547.054 429.253C536.098 415.448 519.83 408.427 498.725 408.427ZM456.66 466.345C457.019 456.692 461.184 447.735 468.439 440.99C476.255 433.725 487.01 429.723 498.725 429.723C504.423 429.673 510.079 430.703 515.392 432.757C520.125 434.606 524.433 437.396 528.052 440.957C534.768 447.598 538.606 456.567 538.947 466.345H456.66Z" fill="black"/>
<path d="M703.067 531.109C694.633 531.109 693.21 526.924 693.21 517.544V452.253C693.21 436.787 688.078 425.183 677.948 417.761C669.503 411.572 657.824 408.438 643.231 408.438C624.383 408.438 609.811 412.923 599.893 421.77C595.308 425.879 591.7 430.958 589.332 436.636C587.029 442.098 585.681 448.301 585.336 455.082L585.257 456.588H609.229L609.319 455.251C609.984 445.447 612.456 439.369 617.343 435.55C622.421 431.584 630.639 429.734 643.238 429.734C652.876 429.734 659.909 431.566 664.135 435.181C667.566 438.121 669.237 442.241 669.237 447.781C669.237 459.862 660.516 462.623 637.435 466.908C619.327 470.329 605.197 473.976 595.089 480.645C589.645 484.231 585.688 488.502 582.997 493.684C580.122 499.184 578.746 505.614 578.746 513.334C578.746 524.959 583.058 534.849 591.208 541.992C599.358 549.135 610.922 552.943 624.505 552.943C644.855 552.943 660.505 546.313 669.949 533.737C671.839 539.923 674.588 544.1 678.505 546.768C682.361 549.4 687.352 550.573 694.676 550.573C698.945 550.573 701.956 550.247 707.53 548.393L708.514 548.066V530.679L706.908 530.865C705.633 531.021 704.351 531.102 703.067 531.109ZM669.23 495.968C669.23 507.801 665.169 516.913 657.16 523.066C649.847 528.681 639.282 531.654 626.615 531.654C618.472 531.654 612.327 529.929 608.36 526.533C604.622 523.338 602.725 518.544 602.725 512.29C602.725 504.789 605.413 499.589 611.439 495.437C617.081 491.543 625.842 488.488 639.828 485.522C654.328 482.575 664.185 479.534 669.223 476.461L669.23 495.968Z" fill="black"/>
<path d="M796.631 409.165C792.631 408.647 788.6 408.407 784.567 408.448C775.17 408.448 767.06 411.439 760.458 417.337C755.787 421.519 751.773 427.163 748.28 434.503V412.12H724.297V549.253H748.298V476.199C748.298 463.889 752.208 452.755 759.312 444.855C762.801 440.956 767.091 437.852 771.889 435.754C777.046 433.534 782.61 432.413 788.225 432.462C790.911 432.469 793.592 432.691 796.242 433.126L797.91 433.395V409.323L796.631 409.165Z" fill="black"/>
<path d="M1523.42 358.15H1500.88V427.249C1496.98 422.179 1492.1 417.946 1486.52 414.802C1478.93 410.578 1469.86 408.434 1459.57 408.434C1442.34 408.434 1426.69 415.29 1415.5 427.733C1403.69 440.861 1397.45 459.173 1397.45 480.688C1397.45 502.203 1403.69 520.513 1415.5 533.64C1426.69 546.083 1442.34 552.939 1459.57 552.939C1469.68 552.939 1478.74 550.763 1486.52 546.485C1491.99 543.444 1496.85 539.434 1500.88 534.652V549.271H1524.85V358.15H1523.42ZM1490.27 517.856C1483.34 526.874 1473.46 531.643 1461.69 531.643C1449.33 531.643 1438.93 526.207 1431.64 515.926C1425.07 506.664 1421.44 494.15 1421.44 480.688C1421.44 467.227 1425.07 454.709 1431.64 445.447C1438.93 435.166 1449.33 429.73 1461.69 429.73C1473.46 429.73 1483.34 434.499 1490.27 443.518C1497.19 452.536 1500.89 465.42 1500.89 480.688C1500.89 495.957 1497.18 508.809 1490.25 517.856H1490.27Z" fill="black"/>
</svg>
