<?xml version="1.0" encoding="UTF-8"?>
<svg width="1426px" height="390px" viewBox="0 0 1426 390" version="1.1" xmlns="http://www.w3.org/2000/svg" xmlns:xlink="http://www.w3.org/1999/xlink">
    <title>clearspend</title>
    <g id="Page-1" stroke="none" stroke-width="1" fill="none" fill-rule="evenodd">
        <g id="clearspend" transform="translate(0.436000, 0.469231)" fill-rule="nonzero">
            <path d="M1394.684,52.7757686 L1292.664,1.13976861 C1287.634,-1.40623139 1283.434,0.447768607 1283.434,5.35976861 L1283.434,36.2947686 L1398.494,79.6837686 L1398.494,60.2917686 C1398.494,57.2007686 1396.804,53.8477686 1394.684,52.7757686 Z" id="Path" fill="#5BEA83"></path>
            <path d="M1352.004,152.680771 L1422.324,152.640769 C1423.894,152.640769 1425.154,150.489769 1425.154,147.832769 L1425.154,131.114769 L1346.114,120.949769 L1346.114,145.583769 C1346.114,149.528769 1348.784,152.683769 1352.004,152.680771 Z" id="Path" fill="#5BEA83"></path>
            <path d="M1283.434,54.6797686 L1283.434,85.6107686 C1283.434,90.5237686 1287.634,95.2927686 1292.664,96.2467686 L1425.154,121.178769 L1425.154,104.461769 C1425.154,101.807769 1423.894,99.2547686 1422.324,98.7567686 L1283.434,54.6797686 Z" id="Path" fill="#5BEA83"></path>
            <path d="M129.722,280.698769 L128.389,280.698769 L128.299,282.035769 C127.534,293.542769 123.236,304.056769 116.203,311.640769 C112.066,316.078769 107.005,319.559769 101.377,321.838769 C94.973,324.470769 87.563,325.804769 79.352,325.804769 C70.009,325.804769 61.568,323.868769 54.269,320.041769 C47.571,316.531769 41.807,311.435769 37.143,304.884769 C28.698,293.026769 24.048,276.603769 24.048,258.627769 C24.048,240.769769 28.698,224.422769 37.143,212.592769 C41.814,206.055769 47.564,200.963769 54.269,197.456769 C61.571,193.634769 70.009,191.697769 79.352,191.697769 C94.542,191.697769 106.713,196.255769 115.524,205.244769 C124.149,214.037769 127.243,224.823769 128.324,230.471769 L128.547,231.636769 L152.552,231.636769 L152.35,230.023769 C150.362,213.684769 142.419,198.645769 130.035,187.774769 C116.739,176.167769 99.217,170.035769 79.366,170.035769 C67.867,170.035769 57.011,172.269769 47.136,176.673769 C37.532,180.964769 28.966,187.269769 22.021,195.158769 C14.989,203.089769 9.523,212.534769 5.768,223.227769 C1.941,234.125769 5.68434189e-14,246.037769 5.68434189e-14,258.627769 C5.68434189e-14,271.278769 1.941,283.233769 5.768,294.166769 C9.519,304.888769 14.989,314.354769 22.017,322.304769 C28.959,330.205769 37.527,336.519769 47.136,340.814769 C57.007,345.221769 67.853,347.459769 79.366,347.459769 C99.648,347.459769 117.245,341.090769 130.258,329.045769 C136.547,323.183769 141.647,316.167769 145.278,308.380769 C149.106,300.140769 151.499,291.310769 152.354,282.268769 L152.516,280.690769 L129.722,280.690769 L129.722,280.698769 Z" id="Path" fill="#000000"></path>
            <path d="M731.739,274.921769 C728.864,268.825769 724.552,263.887769 718.616,259.781769 C707.361,252.000769 691.258,248.009769 672.619,243.387769 C671.181,243.028769 669.787,242.691769 668.407,242.354769 C657.296,239.647769 647.701,237.309769 641.057,233.135769 C634.006,228.707769 630.858,222.589769 630.858,213.298769 C630.858,206.865769 633.863,201.501769 639.54,197.786769 C645.621,193.809769 654.741,191.708769 665.917,191.708769 C678.764,191.708769 688.283,194.440769 695.024,200.066769 C701.492,205.445769 705.359,213.542769 706.883,224.766769 L707.052,226.006769 L731.02,226.006769 L730.894,224.457769 C730.176,215.751769 728.088,207.848769 724.656,200.970769 C721.377,194.349769 716.699,188.516769 710.943,183.873769 C699.728,174.826769 684.15,170.046769 665.895,170.046769 C656.638,170.046769 648.19,171.122769 640.787,173.273769 C633.55,175.364769 627.297,178.465769 622.209,182.485769 C612.111,190.467769 606.775,201.938769 606.775,215.650769 C606.775,223.611769 608.572,230.711769 612.072,236.703769 C615.173,241.999769 619.737,246.643769 625.641,250.505769 C636.608,257.677769 650.795,261.370769 663.211,264.267769 C680.963,268.362769 694.115,271.651769 701.963,276.678769 C705.715,279.084769 708.22,281.827769 709.847,285.316769 C711.475,288.805769 712.251,293.122769 712.251,298.817769 C712.251,306.526769 709.377,313.013769 703.932,317.571769 C697.41,323.035769 687.402,325.818769 674.135,325.818769 C657.903,325.818769 645.355,321.970769 636.834,314.379769 C629.396,307.753769 625.001,298.282769 623.769,286.230769 L623.636,284.940769 L599.62,284.940769 L599.714,286.464769 C600.864,305.300769 608.82,320.974769 622.712,331.792769 C635.9,342.058769 653.681,347.484769 674.128,347.484769 C684.517,347.484769 693.892,346.132769 702.042,343.468769 C709.639,340.983769 716.165,337.350769 721.447,332.671769 C726.323,328.377769 730.171,323.047769 732.709,317.072769 C735.132,311.295769 736.36,305.090769 736.321901,298.828769 C736.328,289.243769 734.826,281.429769 731.739,274.921769 Z" id="Path" fill="#000000"></path>
            <path d="M878.214,245.022769 C875.164,236.291769 870.734,228.635769 865.044,222.266769 C853.904,209.820769 838.424,202.964769 821.424,202.964769 C811.084,202.964769 801.874,205.137769 794.024,209.418769 C788.524,212.444769 783.634,216.456769 779.594,221.252769 L779.594,206.650769 L755.614,206.650769 L755.614,389.062769 L779.594,389.062769 L779.594,328.658769 C783.494,333.755769 788.404,337.993769 794.014,341.105769 C801.684,345.329769 810.904,347.469769 821.424,347.469769 C838.424,347.469769 853.914,340.613769 865.044,328.167769 C870.734,321.798769 875.164,314.143769 878.214,305.411769 C881.394,296.285769 883.014,286.123769 883.014,275.218769 C883.014,264.314769 881.394,254.152769 878.214,245.022769 Z M848.844,310.456769 C841.554,320.737769 831.154,326.173769 818.784,326.173769 C807.024,326.173769 797.144,321.404769 790.214,312.386769 C783.294,303.367769 779.594,290.483769 779.594,275.218769 C779.594,259.954769 783.264,247.095769 790.214,238.048769 C797.164,229.001769 807.024,224.260769 818.784,224.260769 C831.154,224.260769 841.554,229.696769 848.844,239.977769 C855.414,249.239769 859.034,261.754769 859.034,275.218769 C859.034,288.683769 855.414,301.209769 848.844,310.456769 Z" id="Shape" fill="#000000"></path>
            <path d="M963.264,202.957769 C943.384,202.957769 926.744,209.558769 915.154,222.044769 C903.404,234.695769 897.184,253.080769 897.184,275.211769 C897.184,296.472769 903.364,314.512769 915.074,327.378769 C927.014,340.517769 944.044,347.459769 964.304,347.459769 C980.474,347.459769 994.184,342.930769 1005.014,334.001769 C1014.614,326.094769 1021.624,314.817769 1025.314,301.370769 L1025.804,299.556769 L1001.704,299.556769 L1001.424,300.631769 C999.714,306.832769 996.234,312.404769 991.404,316.667769 C984.354,322.957769 974.964,326.145769 963.514,326.145769 C950.314,326.145769 939.324,321.357769 931.734,312.310769 C925.174,304.493769 921.444,293.833769 921.164,282.150769 L1027.484,282.150769 L1027.484,280.716769 C1027.484,256.214769 1022.144,237.058769 1011.604,223.783769 C1000.634,209.978769 984.364,202.957769 963.264,202.957769 Z M921.204,260.875769 C921.554,251.222769 925.724,242.265769 932.984,235.520769 C940.794,228.255769 951.554,224.253769 963.264,224.253769 C968.964,224.203769 974.624,225.233769 979.934,227.287769 C984.664,229.137769 988.974,231.927769 992.594,235.487769 C999.304,242.128769 1003.144,251.097769 1003.484,260.875769 L921.204,260.875769 Z" id="Shape" fill="#000000"></path>
            <path d="M1157.024,228.176769 C1154.794,222.695769 1151.324,217.803769 1146.884,213.886769 C1138.744,206.740769 1127.434,202.964769 1114.184,202.964769 C1103.484,202.964769 1093.814,205.144769 1085.434,209.440769 C1079.874,212.254769 1074.904,216.091769 1070.774,220.750769 L1070.774,206.650769 L1046.794,206.650769 L1046.794,343.783769 L1070.774,343.783769 L1070.774,258.630769 C1070.734,253.892769 1071.664,249.194769 1073.504,244.825769 C1075.264,240.707769 1077.884,237.011769 1081.194,233.985769 C1088.124,227.624769 1097.724,224.260769 1108.914,224.260769 C1118.424,224.260769 1125.644,227.129769 1130.364,232.762769 C1134.554,237.761769 1136.764,245.065769 1136.764,253.893769 L1136.764,343.783769 L1160.744,343.783769 L1160.744,248.626769 C1160.724,241.002769 1159.474,234.121769 1157.024,228.176769 Z" id="Path" fill="#000000"></path>
            <polygon id="Path" fill="#000000" points="173.383 152.680769 171.946 152.680769 171.946 154.114769 171.946 342.349769 171.946 343.783769 173.383 343.783769 194.491 343.783769 195.929 343.783769 195.929 342.349769 195.929 154.114769 195.929 152.680769 194.491 152.680769"></polygon>
            <path d="M281.289,202.957769 C261.406,202.957769 244.768,209.558769 233.172,222.044769 C221.425,234.695769 215.205,253.080769 215.205,275.211769 C215.205,296.472769 221.389,314.512769 233.09,327.378769 C245.038,340.517769 262.068,347.459769 282.321,347.459769 C298.491,347.459769 312.208,342.930769 323.042,334.001769 C332.633,326.094769 339.651,314.817769 343.335,301.370769 L343.831,299.556769 L319.725,299.556769 L319.449,300.631769 C317.737,306.832769 314.256,312.404769 309.43,316.667769 C302.376,322.957769 292.986,326.145769 281.53,326.145769 C268.335,326.145769 257.346,321.357769 249.753,312.310769 C243.198,304.493769 239.472,293.833769 239.191,282.150769 L345.495,282.150769 L345.495,280.716769 C345.495,256.214769 340.155,237.058769 329.618,223.783769 C318.662,209.978769 302.394,202.957769 281.289,202.957769 Z M239.224,260.875769 C239.583,251.222769 243.748,242.265769 251.003,235.520769 C258.819,228.255769 269.574,224.253769 281.289,224.253769 C286.987,224.203769 292.643,225.233769 297.956,227.287769 C302.689,229.136769 306.997,231.926769 310.616,235.487769 C317.332,242.128769 321.17,251.097769 321.511,260.875769 L239.224,260.875769 Z" id="Shape" fill="#000000"></path>
            <path d="M485.631,325.639769 C477.197,325.639769 475.774,321.454769 475.774,312.074769 L475.774,246.783769 C475.774,231.317769 470.642,219.713769 460.512,212.291769 C452.067,206.102769 440.388,202.968769 425.795,202.968769 C406.947,202.968769 392.375,207.453769 382.457,216.300769 C377.872,220.409769 374.264,225.488769 371.896,231.166769 C369.593,236.628769 368.245,242.831769 367.9,249.612769 L367.821,251.118769 L391.793,251.118769 L391.883,249.781769 C392.548,239.977769 395.02,233.899769 399.907,230.080769 C404.985,226.114769 413.203,224.264769 425.802,224.264769 C435.44,224.264769 442.473,226.096769 446.699,229.711769 C450.13,232.651769 451.801,236.771769 451.801,242.311769 C451.801,254.392769 443.08,257.153769 419.999,261.438769 C401.891,264.859769 387.761,268.506769 377.653,275.175769 C372.209,278.761769 368.252,283.032769 365.561,288.214769 C362.686,293.714769 361.31,300.144769 361.31,307.864769 C361.31,319.489769 365.622,329.379769 373.772,336.522769 C381.922,343.665769 393.486,347.473769 407.069,347.473769 C427.419,347.473769 443.069,340.843769 452.513,328.267769 C454.403,334.453769 457.152,338.630769 461.069,341.298769 C464.925,343.930769 469.916,345.103769 477.24,345.103769 C481.509,345.103769 484.52,344.777769 490.094,342.923769 L491.078,342.596769 L491.078,325.209769 L489.472,325.395769 C488.197,325.551769 486.915,325.632769 485.631,325.639769 Z M451.794,290.498769 C451.794,302.331769 447.733,311.443769 439.724,317.596769 C432.411,323.211769 421.846,326.184769 409.179,326.184769 C401.036,326.184769 394.891,324.459769 390.924,321.063769 C387.186,317.868769 385.289,313.074769 385.289,306.820769 C385.289,299.319769 387.977,294.119769 394.003,289.967769 C399.645,286.073769 408.406,283.018769 422.392,280.052769 C436.892,277.105769 446.749,274.064769 451.787,270.991769 L451.794,290.498769 Z" id="Shape" fill="#000000"></path>
            <path d="M579.195,203.695769 C575.195,203.177769 571.164,202.937769 567.131,202.978769 C557.734,202.978769 549.624,205.969769 543.022,211.867769 C538.351,216.049769 534.337,221.693769 530.844,229.033769 L530.844,206.650769 L506.861,206.650769 L506.861,343.783769 L530.862,343.783769 L530.862,270.729769 C530.862,258.419769 534.772,247.285769 541.876,239.385769 C545.365,235.486769 549.655,232.382769 554.453,230.284769 C559.61,228.064769 565.174,226.943769 570.789,226.992769 C573.475,226.999769 576.156,227.221769 578.806,227.656769 L580.474,227.925769 L580.474,203.853769 L579.195,203.695769 Z" id="Path" fill="#000000"></path>
            <path d="M1305.984,152.680769 L1283.444,152.680769 L1283.444,221.779769 C1279.544,216.709769 1274.664,212.476769 1269.084,209.332769 C1261.494,205.108769 1252.424,202.964769 1242.134,202.964769 C1224.904,202.964769 1209.254,209.820769 1198.064,222.263769 C1186.254,235.391769 1180.014,253.703769 1180.014,275.218769 C1180.014,296.733769 1186.254,315.043769 1198.064,328.170769 C1209.254,340.613769 1224.904,347.469769 1242.134,347.469769 C1252.244,347.469769 1261.304,345.293769 1269.084,341.015769 C1274.554,337.974769 1279.414,333.964769 1283.444,329.182769 L1283.444,343.801769 L1307.414,343.801769 L1307.414,152.680769 L1305.984,152.680769 Z M1272.834,312.386769 C1265.904,321.404769 1256.024,326.173769 1244.254,326.173769 C1231.894,326.173769 1221.494,320.737769 1214.204,310.456769 C1207.634,301.194769 1204.004,288.680769 1204.004,275.218769 C1204.004,261.757769 1207.634,249.239769 1214.204,239.977769 C1221.494,229.696769 1231.894,224.260769 1244.254,224.260769 C1256.024,224.260769 1265.904,229.029769 1272.834,238.048769 C1279.754,247.066769 1283.454,259.950769 1283.454,275.218769 C1283.454,290.487769 1279.744,303.339769 1272.814,312.386769 L1272.834,312.386769 Z" id="Shape" fill="#000000"></path>
        </g>
    </g>
</svg>