<?xml version="1.0" encoding="UTF-8"?>
<svg width="116px" height="116px" viewBox="0 0 116 116" version="1.1" xmlns="http://www.w3.org/2000/svg" xmlns:xlink="http://www.w3.org/1999/xlink">
    <title>Utility</title>
    <defs>
        <linearGradient x1="50%" y1="0%" x2="50%" y2="97.2439426%" id="linearGradient-1">
            <stop stop-color="#FFFFFF" offset="0%"></stop>
            <stop stop-color="#D0DDF0" offset="100%"></stop>
        </linearGradient>
        <path d="M58,9.78412037 L57.999,10.2121204 L98.9866667,32.8920449 L98.9866667,84.1758796 L57.613,61.2811204 L16.24,84.1758796 L16.24,32.8920449 L57.226,10.2121204 L57.2266667,9.78412037 L57.613,9.99812037 L58,9.78412037 Z M57.2266667,11.0954 L17.0133333,33.34768 L17.0133333,82.8642133 L57.2266667,60.6115467 L57.2266667,11.0954 Z M58,11.0954 L58,60.6115467 L98.2133333,82.8638267 L98.2133333,33.34768 L58,11.0954 Z" id="path-2"></path>
        <linearGradient x1="50%" y1="0%" x2="50%" y2="100%" id="linearGradient-3">
            <stop stop-color="#D7E4F3" offset="0%"></stop>
            <stop stop-color="#90ACD4" offset="100%"></stop>
        </linearGradient>
        <linearGradient x1="50%" y1="0%" x2="50%" y2="100%" id="linearGradient-4">
            <stop stop-color="#6395C9" offset="0%"></stop>
            <stop stop-color="#214B8A" offset="100%"></stop>
        </linearGradient>
        <linearGradient x1="50%" y1="0%" x2="50%" y2="97.5406673%" id="linearGradient-5">
            <stop stop-color="#89BEE5" offset="0%"></stop>
            <stop stop-color="#3172B9" offset="100%"></stop>
        </linearGradient>
        <linearGradient x1="50%" y1="0%" x2="50%" y2="100%" id="linearGradient-6">
            <stop stop-color="#FFFFFF" offset="0%"></stop>
            <stop stop-color="#E4DBF1" offset="100%"></stop>
        </linearGradient>
        <path d="M98.9866667,32.5974537 L98.9866667,83.8812884 L57.999,106.560454 L58,106.989213 L57.613,106.774454 L57.2266667,106.989213 L57.226,106.560454 L16.24,83.8812884 L16.24,32.5974537 L57.613,55.4904537 L98.9866667,32.5974537 Z M98.2133333,33.9087333 L58,56.1610133 L58,105.67716 L98.2133333,83.42488 L98.2133333,33.9087333 Z M17.0133333,33.9087333 L17.0133333,83.42488 L57.2266667,105.67716 L57.2266667,56.1610133 L17.0133333,33.9087333 Z" id="path-7"></path>
        <linearGradient x1="50%" y1="0%" x2="50%" y2="100%" id="linearGradient-8">
            <stop stop-color="#EAF1F3" offset="0%"></stop>
            <stop stop-color="#DEE8F5" offset="100%"></stop>
        </linearGradient>
        <linearGradient x1="50%" y1="0%" x2="50%" y2="100%" id="linearGradient-9">
            <stop stop-color="#ADD4E0" offset="0%"></stop>
            <stop stop-color="#D9E8F2" offset="100%"></stop>
        </linearGradient>
        <linearGradient x1="50%" y1="0%" x2="50%" y2="100%" id="linearGradient-10">
            <stop stop-color="#E6EFF1" offset="0%"></stop>
            <stop stop-color="#B1D3EB" offset="100%"></stop>
        </linearGradient>
        <linearGradient x1="50%" y1="0%" x2="50%" y2="99.3298084%" id="linearGradient-11">
            <stop stop-color="#C6D9E6" offset="0%"></stop>
            <stop stop-color="#D7E4EE" offset="100%"></stop>
        </linearGradient>
        <linearGradient x1="50%" y1="32.1798912%" x2="96.3065256%" y2="70.6482108%" id="linearGradient-12">
            <stop stop-color="#B6D5EC" offset="0%"></stop>
            <stop stop-color="#DAE7F2" offset="100%"></stop>
        </linearGradient>
    </defs>
    <g id="Utility" stroke="none" stroke-width="1" fill="none" fill-rule="evenodd">
        <circle id="Oval-Copy-8" cx="58" cy="58" r="58"></circle>
        <g id="Shape" fill-rule="nonzero">
            <use fill="url(#linearGradient-1)" xlink:href="#path-2"></use>
            <use fill="#FFFFFF" xlink:href="#path-2"></use>
        </g>
        <g id="Asset-3" transform="translate(25.000000, 24.000000)" fill-rule="nonzero">
            <path d="M35,0 L38,1 L36.5831004,3.83229431 C36.7011512,3.87132018 36.8340638,3.89487813 36.9829694,3.90144194 C37.1653861,3.91249473 37.3395423,3.98156484 37.4801536,4.09862457 C37.8216436,4.39526509 38.0102337,4.82795392 37.9995712,5.27573032 L37.9885737,5.42538199 C37.9531844,6.38881676 37.5960712,7.3123975 36.9745425,8.04791097 C36.7638712,8.30706528 36.5166836,8.53241686 36.3116302,8.79438807 C35.6475508,9.56627846 35.2651725,10.541816 35.2273753,11.5605787 C35.212385,13.0124437 34.4934599,14.3660798 33.3004352,15.1887391 C32.9053193,15.537803 32.3605516,15.6619158 31.8538257,15.5183158 C31.3743758,15.3621443 30.8500827,15.4336996 30.4296878,15.7126815 C30.2771806,15.8072183 30.21847,16.2567575 30.1899571,16.7913088 L30.1747243,17.1573079 L30.1747243,17.1573079 L30.1483065,18.065844 L30.1483065,18.065844 L30.1314127,18.3800088 C30.1067444,18.7180195 30.0618705,18.9441298 29.9668672,18.9313071 C29.4892325,18.8668403 28.8551361,18.6761035 28.0645781,18.3590967 L27.51436,18.1290522 C27.4187937,18.0875937 27.3212958,18.0445763 27.2218663,18 C26.7468363,17.9573047 26.3504451,17.6185158 26.2331157,17.1549316 C26.1482308,16.8867177 26.1186051,16.6039978 26.1460382,16.3239476 C26.1908849,15.993577 26.2077988,15.6599954 26.1965993,15.3267669 C26.1467873,14.6694915 25.7984524,14.21343 25.2406623,14.1280601 L25.1179623,14.1155022 C24.5950697,14.0782059 24.1632652,13.6914931 24.0674148,13.1746594 C24.0393253,13.0366315 24.0224716,12.8929699 24,12.7605758 L24,12.4788864 L24.0196627,12.3746613 L24.0196627,12.3746613 C24.1049545,11.4587737 24.470963,10.5918421 25.0674012,9.89297701 L25.2381327,9.69275741 L25.2381327,9.69275741 L25.5911827,9.31978295 C25.6483273,9.2563588 25.7036285,9.190866 25.7555941,9.12114785 C26.3797045,8.34556993 26.7355861,7.38760698 26.7696252,6.39157687 C26.7918058,4.94585129 27.5177504,3.60242204 28.713419,2.79440232 C29.1627529,2.41269046 29.7829666,2.30489709 30.3341835,2.51271285 C30.5321229,2.57189388 30.7429774,2.57189388 30.9409168,2.51271285 C31.2455342,2.438342 31.5321162,2.30326753 31.7836019,2.11553069 C32.1862381,1.79440991 32.5476056,1.42445091 32.85943,1.01412486 C33.2390469,0.540347492 33.7612841,0.202403579 34.3481738,0.050746867 C34.5671604,-0.0179207398 34.7932562,-0.0149655559 34.9996714,0.0479121027 L35,0 Z M32.3257294,8.26762875 C32.3289486,8.10726322 32.3061807,7.94743744 32.2583146,7.79439044 C32.2105634,7.60692822 32.0871299,7.44787149 31.9176504,7.35540964 C31.748171,7.26294779 31.5479529,7.24543195 31.3650683,7.30706766 C31.1397002,7.36862786 30.9306266,7.4792309 30.7527171,7.63101055 C30.1904748,8.09809856 29.8113301,8.74975647 29.6825069,9.4704428 C29.6379848,9.69546724 29.6456736,9.92774627 29.7049785,10.1493144 C29.7417265,10.3582221 29.8700675,10.5395446 30.0545958,10.6432601 C30.2083694,10.7296897 30.3876197,10.7546138 30.5570299,10.7156143 L30.6572128,10.6845244 C30.7924267,10.6478775 30.9205912,10.5888503 31.0364211,10.5098769 C31.7297288,10.0338571 32.1881749,9.28869191 32.304906,8.46021104 L32.3257294,8.26762875 Z" id="Shape" fill="#90ACD4"></path>
            <path d="M30.4184928,19 L30.2218663,19 C29.7468363,18.9573047 29.3504451,18.6185158 29.2331157,18.1549316 C29.1482308,17.8867177 29.1186051,17.6039978 29.1460382,17.3239476 C29.1908849,16.993577 29.2077988,16.6599954 29.1965993,16.3267669 C29.1432293,15.6225432 28.7471672,15.1493049 28.1179623,15.1155022 C27.5950697,15.0782059 27.1632652,14.6914931 27.0674148,14.1746594 C27.0393253,14.0366315 27.0224716,13.8929699 27,13.7605758 L27,13.4788864 C27,13.4450836 27.0168537,13.4112809 27.0196627,13.3746613 C27.1049545,12.4587737 27.470963,11.5918421 28.0674012,10.892977 C28.2864993,10.6112875 28.5477317,10.4000204 28.7555941,10.1211479 C29.3797045,9.34556993 29.7355861,8.38760698 29.7696252,7.39157687 C29.7918058,5.94585129 30.5177504,4.60242204 31.713419,3.79440232 C32.1627529,3.41269046 32.7829666,3.30489709 33.3341835,3.51271285 C33.5321229,3.57189388 33.7429774,3.57189388 33.9409168,3.51271285 C34.2455342,3.438342 34.5321162,3.30326753 34.7836019,3.11553069 C35.1862381,2.79440991 35.5476056,2.42445091 35.85943,2.01412486 C36.2390469,1.54034749 36.7612841,1.20240358 37.3481738,1.05074687 C37.8733166,0.886077946 38.4393412,1.13328902 38.6768074,1.63102718 C38.8248605,1.95212997 38.8840441,2.30726272 38.8481534,2.65919375 C38.8028418,2.98951532 38.7868617,3.32321874 38.8004012,3.65637448 C38.8734339,4.38313332 39.2161259,4.86763921 39.9829694,4.90144194 C40.1653861,4.91249473 40.3395423,4.98156484 40.4801536,5.09862457 C40.859587,5.42822514 41.050255,5.92578661 40.9885737,6.42538199 C40.9531844,7.38881676 40.5960712,8.3123975 39.9745425,9.04791097 C39.7638712,9.30706528 39.5166836,9.53241686 39.3116302,9.79438807 C38.6475508,10.5662785 38.2651725,11.541816 38.2273753,12.5605787 C38.212385,14.0124437 37.4934599,15.3660798 36.3004352,16.1887391 C35.9053193,16.537803 35.3605516,16.6619158 34.8538257,16.5183158 C34.3743758,16.3621443 33.8500827,16.4336996 33.4296878,16.7126815 C33.0060568,16.9752836 32.6346219,17.3143408 32.3341971,17.7126791 C31.8313949,18.3464804 31.2555601,18.8704228 30.4184928,19 Z M35.3257294,9.26762875 C35.3289486,9.10726322 35.3061807,8.94743744 35.2583146,8.79439044 C35.2105634,8.60692822 35.0871299,8.44787149 34.9176504,8.35540964 C34.748171,8.26294779 34.5479529,8.24543195 34.3650683,8.30706766 C34.1397002,8.36862786 33.9306266,8.4792309 33.7527171,8.63101055 C33.1904748,9.09809856 32.8113301,9.74975647 32.6825069,10.4704428 C32.6379848,10.6954672 32.6456736,10.9277463 32.7049785,11.1493144 C32.7417265,11.3582221 32.8700675,11.5395446 33.0545958,11.6432601 C33.2391242,11.7469756 33.4603388,11.7621233 33.6572128,11.6845244 C33.7924267,11.6478775 33.9205912,11.5888503 34.0364211,11.5098769 C34.7830601,10.9972402 35.2573153,10.1724585 35.3257294,9.26762875 L35.3257294,9.26762875 Z" id="Shape" fill="url(#linearGradient-3)"></path>
            <path d="M19.0160361,14 L19.7724681,14 C20.2384502,14.2794881 22.0126963,15.4543384 22,16 C22.0060475,16.1695707 21.2796232,17.0614144 22.0817266,16.779971 C22.6532314,16.5360774 23.1470022,16.1386514 23.5089569,15.6312227 C23.8307254,15.2226027 24.2420023,14.8943264 24.7106847,14.6720178 C25.6612201,14.2527246 27.9514742,15.9661265 28,17 C28.0002477,17.5850155 26.4155988,16.9848948 26.1892953,17.5237856 C25.9857098,18.018649 25.9282287,18.5620675 26.0237365,19.0889552 C26.0568403,19.4161338 26.2430983,19.7077937 26.5251187,19.8740657 C26.8071391,20.0403376 27.1510815,20.0612702 27.4509668,19.9304134 C27.6186658,19.8765681 27.7810997,19.807353 27.9362251,19.7236387 C28.7183472,19.3014737 31.5946666,20.8483798 32,22 C30.5132817,22.1417875 29.7153099,22.3316751 29.6060845,22.5696627 C29.3995901,22.948058 29.1618321,23.3083113 28.8953238,23.6466143 C28.3041562,24.3577546 27.9754182,25.2525871 27.9647697,26.1796044 C27.9847509,26.8803409 28.2787603,27.3283528 28.8610703,27.4173808 C29.3996013,27.4748035 29.8458588,27.863079 29.9800188,28.390945 L29.9800188,29.3817405 C29.888676,29.6689276 29.8144601,29.9561146 29.6945727,30.2433017 C29.3947173,31.1016773 28.8100384,31.8298841 28.0389856,32.305305 C27.1997055,32.8147329 26.5567502,33.595237 26.2149854,34.5195175 C25.9295394,35.2547164 25.7811074,36.0243778 26.2149854,36.753833 C26.4956251,37.2565122 26.5781557,37.8469759 26.4461967,38.4080307 C26.3577361,38.9368898 26.1550656,39.4397941 25.8524689,39.8813004 C25.2187787,40.7888116 24.5279993,41.6302698 23.2463465,41.5383699 C22.9660651,41.5453666 22.6940396,41.635263 22.4642243,41.7968383 C22.0634512,42.0393111 21.7103094,42.3537235 21.4223463,42.7244526 C20.7544025,43.5860139 20.5431724,44.56245 20.4318485,45.6221703 C20.3136265,47.0489936 19.4316366,48.2974761 18.1311533,48.8788719 C17.6735229,49.1581833 17.080214,49.0454853 16.7553034,48.6175317 C16.2357916,47.942642 15.6135192,48.0431575 15.0426271,48.364807 C14.401641,48.7304207 13.8883034,49.2860005 13.5725799,49.9558235 C13.3699132,50.3492698 13.2186268,50.7714348 13.0016878,51.1562655 C12.5506831,51.9575175 12.904864,54.7041973 12,55 C11.6654948,55.1377689 10.3345097,53.0198326 10.0300622,52.8238206 C9.72561469,52.6278086 9.53504526,52.2949756 9.51924605,51.9316707 C9.48213806,51.6444836 9.47357468,51.3773996 9.43075777,51.1017 C9.30516151,50.2918324 8.70857927,49.9385923 7.9407294,50.1999325 C7.36466321,50.4343251 6.86532011,50.8262878 6.49922686,51.3314497 C6.16345591,51.762944 6.49667879,53.7750541 6,54 C5.0751548,54.3762151 3.51917011,52.1729078 3.4620809,51.1821124 C3.45169704,50.6594265 3.54888151,50.1402294 3.74752695,49.6571489 C3.95624141,49.1654484 4.04717444,48.6312785 4.01299178,48.097723 C3.92164904,47.1902118 3.8449203,48.6840942 3,49 C2.71455395,49.1033874 0.952685952,47.5788153 0.641632607,47.4102603 C0.330579262,47.2417052 0.114603349,46.93777 0.0567095489,46.5871189 C-0.018903183,46.2389431 -0.018903183,45.8784463 0.0567095489,45.5302705 C0.211053075,44.7686433 0.550355096,44.0572882 1.04435288,43.4596516 C1.6494985,42.6813745 2.07481311,41.8284289 2.04912297,40.8117866 C2.02914174,40.0966907 1.71800555,39.6975007 1.11571439,39.5539071 C0.345010058,39.3701074 0.00818372073,38.979533 0.0253104836,38.201256 C0.00756032567,36.7572577 0.750190421,35.4114964 1.97776145,34.663111 C2.7853079,34.1551936 3.41116134,33.4018016 3.76465371,32.5120797 C4.09862559,31.6849809 4.21280401,30.8463946 3.67616544,30.036527 C3.54798367,29.8270939 3.48348901,29.5845125 3.49062551,29.3386624 C3.49062551,27.8194427 4.18996833,26.6735662 5.3545882,25.7832862 C5.63084449,25.5521249 5.98009727,25.4278677 6.33937707,25.432918 C7.32416593,25.498971 7.97498292,24.9590593 8.54587502,24.2611947 C9.23094554,23.4226084 9.45930238,22.4346848 9.55064511,21.3692207 C9.6607675,20.0271451 10.4459496,18.8351446 11.6315468,18.2101627 C12.3508708,17.7937414 12.810439,17.8942569 13.3727677,18.5117092 C13.6332717,18.8193608 14.0508723,18.9413392 14.434627,18.8218712 C14.864377,18.7018035 15.2570841,18.4746197 15.5764112,18.1613409 C16.0805458,17.6803127 16.4707591,17.0914227 16.7181954,16.4382184 C17.1549278,15.3038294 17.868543,14.4422681 19.0160361,14 Z M18.767698,31.348972 C18.7602526,30.8474546 18.6535089,30.3524623 18.4537074,29.8929335 C18.1099678,29.1078773 17.2614512,28.6780211 16.4298949,28.8676756 C15.9317816,28.9625289 15.4579277,29.1579159 15.0369182,29.4420498 C13.6096879,30.392639 12.6934061,31.7395465 12.0882605,33.3363067 C11.7765179,34.1347918 11.6477282,34.9937183 11.7114717,35.8491937 C11.8056689,37.020917 12.4022511,37.7618597 13.4098757,37.9255564 C13.8904247,37.9713011 14.3735832,37.8712794 14.7971435,37.6383693 C15.7445483,37.1840238 16.5595506,36.4916459 17.1634912,35.6280596 C18.1055406,34.391842 18.6636289,32.9031879 18.767698,31.348972 L18.767698,31.348972 Z" id="Shape-Copy" fill="#3172B9"></path>
            <path d="M27,62 L25.3509796,61 C24.6670128,60.7124904 24.3980049,60.160472 24.423761,59.4273226 C24.4308633,59.0744479 24.481816,58.7238467 24.5754357,58.3836628 C24.6947221,57.9977533 24.7479441,57.5943019 24.7328339,57.190498 C24.664151,56.112337 24.392943,58.3447668 24,58 C23.3681646,57.4456299 21.7867693,56.0956018 21.6153984,55.9881663 C21.3374508,55.8139159 21.1471409,55.5283689 21.0926425,55.2038067 C20.9979625,54.8624656 20.9755402,54.5049782 21.0268214,54.1543967 C21.1460209,53.2895014 21.5027807,52.4750935 22.0570643,51.8025683 C22.6733315,51.1041397 23.0888229,50.2504086 23.2590142,49.332861 C23.3734857,48.5882111 23.2876321,47.895313 22.6551775,47.3864211 C22.3613291,47.130269 22.1913892,46.7594805 22.1887064,46.3686371 C22.1520061,45.6894309 22.2899848,45.0121712 22.5893564,44.4020715 C23.035795,43.4360393 23.6568025,42.6195121 24.6670128,42.1853726 C26.4527671,41.4205971 27.2769613,39.977299 27.4086035,38.1199871 C27.4398081,37.3032395 27.6697308,36.506613 28.0782613,35.7997847 C28.4952189,35.0431689 29.1405616,34.4391214 29.9212513,34.0747272 C30.3887299,33.8391864 30.9507495,33.9046839 31.3521441,34.2414827 C31.6595364,34.4827403 32.0669185,34.5529329 32.4367609,34.428364 C32.7636267,34.3291552 33.0686243,34.1681404 33.3353616,33.9539732 C34.0136048,33.4565816 34.4199784,32.7521831 34.8063194,32.0276589 C35.2124495,31.160328 35.927118,30.4772095 36.8095694,30.1128451 C37.7797147,29.750583 38,30 40,32 C40,32.1092536 39.5176546,33.400666 40.0977611,33.2323241 C40.476768,33.1273012 40.829021,32.942023 41.1308658,32.688931 C41.4144806,32.4481697 41.7380166,32.2593736 42.0867022,32.1311624 C42.43183,31.9841983 42.8250038,32.0045048 43.1533113,32.1862503 C43.4816188,32.3679958 44.9393013,33.6283772 45,34 C46,35 43.8558981,34.1762352 43.6749932,34.7043732 C43.5158277,35.1527839 43.3245415,35.5890232 43.1026361,36.0096667 C42.8107966,36.5888107 42.6812085,37.236783 42.7277422,37.8842292 C42.7878397,38.6490047 43.1512865,39.0342676 43.8982125,39.1406461 C44.1901315,39.1742276 44.458801,39.3168844 44.6508621,39.5402844 C44.8216135,39.7653554 46.9408269,41.7233221 47,42 L45,41.1503381 C44.8146982,42.3706544 44.181802,43.4772209 43.2256929,44.2525666 C42.7384106,44.6275246 42.327438,45.0931172 42.0151575,45.6239873 C41.4199061,46.6417712 41.0679065,47.6969314 41.5544101,48.8728456 C41.6059205,49.0264911 41.6301374,49.1880395 41.6259547,49.3501115 C41.6774668,50.6410296 41.128004,51.6933147 40.2952244,52.6162204 C39.8001354,53.1653638 39.2277783,53.6196289 38.4293401,53.5678772 C37.7272383,53.5352482 37.0455409,53.8100344 36.5605941,54.3211523 C35.8613485,54.9911954 35.3652477,55.8464637 35.1297012,56.7879846 C34.7691162,58.1306543 35.28208,61.3847295 34,62 C33.1672204,62.3996383 31.3120791,59.9678406 30.9429088,59.1168122 C30.6567302,58.4382896 30.178812,58.2054068 29.4633656,58.4037884 C28.8186777,58.6184295 28.2591591,59.0344796 27.8664892,59.591203 C27.4012964,60.2341748 27.7421129,61.7243764 27,62 Z M30.3533809,47.265667 C30.3609112,47.5923101 30.4208239,47.9155958 30.5308116,48.223074 C30.7480316,48.9102499 31.454304,49.3144598 32.1534441,49.1517299 C32.4883362,49.0814952 32.8074974,48.9499233 33.0949716,48.763592 C34.4539231,47.8435121 35.3744834,46.4005925 35.6390991,44.775834 C35.73263,44.2972933 35.7040795,43.8027544 35.5561073,43.3382861 C35.3651504,42.6207315 34.6478512,42.1795004 33.9248894,42.3348776 C33.6566259,42.3862022 33.3991348,42.4834536 33.1636545,42.6223872 C31.4265506,43.6775474 30.5937709,45.2962264 30.3533809,47.265667 Z" id="Shape" fill="#214B8A"></path>
            <path d="M28.0149139,63 L27.3509796,63 C26.6670128,62.7124904 26.3980049,62.160472 26.423761,61.4273226 C26.4308633,61.0744479 26.481816,60.7238467 26.5754357,60.3836628 C26.6947221,59.9977533 26.7479441,59.5943019 26.7328339,59.190498 C26.664151,58.112337 25.95729,57.6379462 24.9499414,57.9944581 C24.818598,58.0446882 24.6837232,58.0850505 24.5464296,58.1152121 C24.232289,58.2086679 23.8933461,58.1624167 23.6153984,57.9881663 C23.3374508,57.8139159 23.1471409,57.5283689 23.0926425,57.2038067 C22.9979625,56.8624656 22.9755402,56.5049782 23.0268214,56.1543967 C23.1460209,55.2895014 23.5027807,54.4750935 24.0570643,53.8025683 C24.6733315,53.1041397 25.0888229,52.2504086 25.2590142,51.332861 C25.3734857,50.5882111 25.2876321,49.895313 24.6551775,49.3864211 C24.3613291,49.130269 24.1913892,48.7594805 24.1887064,48.3686371 C24.1520061,47.6894309 24.2899848,47.0121712 24.5893564,46.4020715 C25.035795,45.4360393 25.6568025,44.6195121 26.6670128,44.1853726 C28.4527671,43.4205971 29.2769613,41.977299 29.4086035,40.1199871 C29.4398081,39.3032395 29.6697308,38.506613 30.0782613,37.7997847 C30.4952189,37.0431689 31.1405616,36.4391214 31.9212513,36.0747272 C32.3887299,35.8391864 32.9507495,35.9046839 33.3521441,36.2414827 C33.6595364,36.4827403 34.0669185,36.5529329 34.4367609,36.428364 C34.7636267,36.3291552 35.0686243,36.1681404 35.3353616,35.9539732 C36.0136048,35.4565816 36.4199784,34.7521831 36.8063194,34.0276589 C37.2124495,33.160328 37.927118,32.4772095 38.8095694,32.1128451 C39.7797147,31.750583 40.5552587,32.2882259 40.5924619,33.3290106 C40.5924619,33.4382643 40.5924619,33.550393 40.5924619,33.6625217 C40.5978529,33.9447207 40.6441271,34.2246262 40.7298276,34.4934245 C40.90998,35.072426 41.5176546,35.400666 42.0977611,35.2323241 C42.476768,35.1273012 42.829021,34.942023 43.1308658,34.688931 C43.4144806,34.4481697 43.7380166,34.2593736 44.0867022,34.1311624 C44.43183,33.9841983 44.8250038,34.0045048 45.1533113,34.1862503 C45.4816188,34.3679958 45.7087335,34.6910706 45.7694322,35.0626934 C45.8885718,35.6082526 45.8558981,36.1762352 45.6749932,36.7043732 C45.5158277,37.1527839 45.3245415,37.5890232 45.1026361,38.0096667 C44.8107966,38.5888107 44.6812085,39.236783 44.7277422,39.8842292 C44.7878397,40.6490047 45.1512865,41.0342676 45.8982125,41.1406461 C46.1901315,41.1742276 46.458801,41.3168844 46.6508621,41.5402844 C46.8216135,41.7653554 46.9408269,42.0255069 47,42.3021848 L47,43.1503381 C46.8146982,44.3706544 46.181802,45.4772209 45.2256929,46.2525666 C44.7384106,46.6275246 44.327438,47.0931172 44.0151575,47.6239873 C43.4199061,48.6417712 43.0679065,49.6969314 43.5544101,50.8728456 C43.6059205,51.0264911 43.6301374,51.1880395 43.6259547,51.3501115 C43.6774668,52.6410296 43.128004,53.6933147 42.2952244,54.6162204 C41.8001354,55.1653638 41.2277783,55.6196289 40.4293401,55.5678772 C39.7272383,55.5352482 39.0455409,55.8100344 38.5605941,56.3211523 C37.8613485,56.9911954 37.3652477,57.8464637 37.1297012,58.7879846 C36.7691162,60.1306543 36.050808,61.2203157 34.768728,61.8355862 C33.9359484,62.2352245 33.3120791,61.9678406 32.9429088,61.1168122 C32.6567302,60.4382896 32.178812,60.2054068 31.4633656,60.4037884 C30.8186777,60.6184295 30.2591591,61.0344796 29.8664892,61.591203 C29.4012964,62.2341748 28.7570267,62.7243764 28.0149139,63 Z M32.3533809,49.265667 C32.3609112,49.5923101 32.4208239,49.9155958 32.5308116,50.223074 C32.7480316,50.9102499 33.454304,51.3144598 34.1534441,51.1517299 C34.4883362,51.0814952 34.8074974,50.9499233 35.0949716,50.763592 C36.4539231,49.8435121 37.3744834,48.4005925 37.6390991,46.775834 C37.73263,46.2972933 37.7040795,45.8027544 37.5561073,45.3382861 C37.3651504,44.6207315 36.6478512,44.1795004 35.9248894,44.3348776 C35.6566259,44.3862022 35.3991348,44.4834536 35.1636545,44.6223872 C33.4265506,45.6775474 32.5937709,47.2962264 32.3533809,49.265667 Z" id="Shape" fill="url(#linearGradient-4)"></path>
            <path d="M21.0160361,16 L21.7724681,16 C22.2384502,16.2794881 22.5187608,16.7897583 22.5060644,17.33542 C22.5121119,17.5049907 22.5302366,17.6739069 22.5602992,17.8408692 C22.6716231,18.6880711 23.2796232,19.0614144 24.0817266,18.779971 C24.6532314,18.5360774 25.1470022,18.1386514 25.5089569,17.6312227 C25.8307254,17.2226027 26.2420023,16.8943264 26.7106847,16.6720178 C27.6612201,16.2527246 28.4833047,16.7868926 28.5318305,17.8207661 C28.5320782,18.4057817 28.4155988,18.9848948 28.1892953,19.5237856 C27.9857098,20.018649 27.9282287,20.5620675 28.0237365,21.0889552 C28.0568403,21.4161338 28.2430983,21.7077937 28.5251187,21.8740657 C28.8071391,22.0403376 29.1510815,22.0612702 29.4509668,21.9304134 C29.6186658,21.8765681 29.7810997,21.807353 29.9362251,21.7236387 C30.7183472,21.3014737 31.5946666,21.2440362 32,22.3956565 L32,23.4611206 C31.9017512,23.8416941 31.7699226,24.2126812 31.6060845,24.5696627 C31.3995901,24.948058 31.1618321,25.3083113 30.8953238,25.6466143 C30.3041562,26.3577546 29.9754182,27.2525871 29.9647697,28.1796044 C29.9847509,28.8803409 30.2787603,29.3283528 30.8610703,29.4173808 C31.3996013,29.4748035 31.8458588,29.863079 31.9800188,30.390945 L31.9800188,31.3817405 C31.888676,31.6689276 31.8144601,31.9561146 31.6945727,32.2433017 C31.3947173,33.1016773 30.8100384,33.8298841 30.0389856,34.305305 C29.1997055,34.8147329 28.5567502,35.595237 28.2149854,36.5195175 C27.9295394,37.2547164 27.7811074,38.0243778 28.2149854,38.753833 C28.4956251,39.2565122 28.5781557,39.8469759 28.4461967,40.4080307 C28.3577361,40.9368898 28.1550656,41.4397941 27.8524689,41.8813004 C27.2187787,42.7888116 26.5279993,43.6302698 25.2463465,43.5383699 C24.9660651,43.5453666 24.6940396,43.635263 24.4642243,43.7968383 C24.0634512,44.0393111 23.7103094,44.3537235 23.4223463,44.7244526 C22.7544025,45.5860139 22.5431724,46.56245 22.4318485,47.6221703 C22.3136265,49.0489936 21.4316366,50.2974761 20.1311533,50.8788719 C19.6735229,51.1581833 19.080214,51.0454853 18.7553034,50.6175317 C18.2357916,49.942642 17.6135192,50.0431575 17.0426271,50.364807 C16.401641,50.7304207 15.8883034,51.2860005 15.5725799,51.9558235 C15.3699132,52.3492698 15.2186268,52.7714348 15.0016878,53.1562655 C14.5506831,53.9575175 13.9541008,54.6209197 13.0492369,54.9167224 C12.7147317,55.0544913 12.3345097,55.0198326 12.0300622,54.8238206 C11.7256147,54.6278086 11.5350453,54.2949756 11.519246,53.9316707 C11.4821381,53.6444836 11.4735747,53.3773996 11.4307578,53.1017 C11.3051615,52.2918324 10.7085793,51.9385923 9.9407294,52.1999325 C9.36466321,52.4343251 8.86532011,52.8262878 8.49922686,53.3314497 C8.16345591,53.762944 7.72852519,54.1059148 7.2318464,54.3308607 C6.30700121,54.7070758 5.51917011,54.1729078 5.4620809,53.1821124 C5.45169704,52.6594265 5.54888151,52.1402294 5.74752695,51.6571489 C5.95624141,51.1654484 6.04717444,50.6312785 6.01299178,50.097723 C5.92164904,49.1902118 5.28510435,48.7766624 4.44018405,49.0925682 C4.154738,49.1959556 3.91781778,49.3539085 3.64664404,49.4486802 C3.32377452,49.5930014 2.95268595,49.5788153 2.64163261,49.4102603 C2.33057926,49.2417052 2.11460335,48.93777 2.05670955,48.5871189 C1.98109682,48.2389431 1.98109682,47.8784463 2.05670955,47.5302705 C2.21105308,46.7686433 2.5503551,46.0572882 3.04435288,45.4596516 C3.6494985,44.6813745 4.07481311,43.8284289 4.04912297,42.8117866 C4.02914174,42.0966907 3.71800555,41.6975007 3.11571439,41.5539071 C2.34501006,41.3701074 2.00818372,40.979533 2.02531048,40.201256 C2.00756033,38.7572577 2.75019042,37.4114964 3.97776145,36.663111 C4.7853079,36.1551936 5.41116134,35.4018016 5.76465371,34.5120797 C6.09862559,33.6849809 6.21280401,32.8463946 5.67616544,32.036527 C5.54798367,31.8270939 5.48348901,31.5845125 5.49062551,31.3386624 C5.49062551,29.8194427 6.18996833,28.6735662 7.3545882,27.7832862 C7.63084449,27.5521249 7.98009727,27.4278677 8.33937707,27.432918 C9.32416593,27.498971 9.97498292,26.9590593 10.545875,26.2611947 C11.2309455,25.4226084 11.4593024,24.4346848 11.5506451,23.3692207 C11.6607675,22.0271451 12.4459496,20.8351446 13.6315468,20.2101627 C14.3508708,19.7937414 14.810439,19.8942569 15.3727677,20.5117092 C15.6332717,20.8193608 16.0508723,20.9413392 16.434627,20.8218712 C16.864377,20.7018035 17.2570841,20.4746197 17.5764112,20.1613409 C18.0805458,19.6803127 18.4707591,19.0914227 18.7181954,18.4382184 C19.1549278,17.3038294 19.868543,16.4422681 21.0160361,16 Z M20.767698,33.348972 C20.7602526,32.8474546 20.6535089,32.3524623 20.4537074,31.8929335 C20.1099678,31.1078773 19.2614512,30.6780211 18.4298949,30.8676756 C17.9317816,30.9625289 17.4579277,31.1579159 17.0369182,31.4420498 C15.6096879,32.392639 14.6934061,33.7395465 14.0882605,35.3363067 C13.7765179,36.1347918 13.6477282,36.9937183 13.7114717,37.8491937 C13.8056689,39.020917 14.4022511,39.7618597 15.4098757,39.9255564 C15.8904247,39.9713011 16.3735832,39.8712794 16.7971435,39.6383693 C17.7445483,39.1840238 18.5595506,38.4916459 19.1634912,37.6280596 C20.1055406,36.391842 20.6636289,34.9031879 20.767698,33.348972 L20.767698,33.348972 Z" id="Shape" fill="url(#linearGradient-5)"></path>
        </g>
        <g id="Shape" fill-rule="nonzero">
            <use fill="url(#linearGradient-6)" xlink:href="#path-7"></use>
            <use fill="#FFFFFF" xlink:href="#path-7"></use>
        </g>
        <g id="Star-Copy" transform="translate(62.760000, 50.280000)">
            <polygon id="Path-9" fill="#7EB4E8" points="7.34666667 39.44 5.8 38.6666667 7.73333333 23.2 10.0533333 25.1333333"></polygon>
            <polygon id="Path-8" fill="#9FCFDF" points="18.9466667 8.89333333 30.5466667 4.25333333 31.7066667 4.64 19.3333333 9.66666667"></polygon>
            <polygon id="Path" fill="url(#linearGradient-8)" points="1.54666667 22.4266667 11.9866667 14.3066667 16.6266667 0.773333333 21.2666667 8.89333333 31.7066667 4.64 24.36 18.56 26.2933333 28.6133333 16.6266667 28.6133333 7.34666667 39.44 8.89333333 26.68"></polygon>
            <path d="M31.7066667,4.64 L25.4463333,16.5 L21.6533333,22.4266667 L31.4303333,4.752 L31.7066667,4.64 Z" id="Combined-Shape" fill="url(#linearGradient-9)"></path>
            <path d="M16.5606533,0.966506667 L21.6533333,22.4266667 L11.6516533,14.5675067 L11.9866667,14.3066667 L16.5606533,0.966506667 Z" id="Combined-Shape" fill="url(#linearGradient-10)"></path>
            <path d="M21.6533333,22.4266667 L8.89333333,26.68 L1.54666667,22.4266667 L21.6533333,22.4266667 Z" id="Combined-Shape" fill="url(#linearGradient-11)"></path>
            <path d="M21.6533333,22.4266667 L26.225,28.6126667 L16.705,28.6126667 L21.6533333,22.4266667 Z" id="Combined-Shape" fill="url(#linearGradient-12)"></path>
            <polygon id="Path-7" fill="#B3D5EA" points="1.54666667 22.4266667 0 21.6533333 10.44 13.5333333 11.9866667 14.3066667"></polygon>
            <polygon id="Path-7" fill="#71BEDB" points="16.6266667 0.773333333 15.08 0 10.44 13.5333333 11.9866667 14.3066667"></polygon>
        </g>
    </g>
</svg>