<?xml version="1.0" encoding="UTF-8"?>
<svg width="116px" height="116px" viewBox="0 0 116 116" version="1.1" xmlns="http://www.w3.org/2000/svg" xmlns:xlink="http://www.w3.org/1999/xlink">
    <title>App</title>
    <defs>
        <linearGradient x1="50%" y1="0%" x2="50%" y2="97.2439426%" id="linearGradient-1">
            <stop stop-color="#FFFFFF" offset="0%"></stop>
            <stop stop-color="#D0DDF0" offset="100%"></stop>
        </linearGradient>
        <path d="M58,9.78412037 L57.999,10.2121204 L98.9866667,32.8920449 L98.9866667,84.1758796 L57.613,61.2811204 L16.24,84.1758796 L16.24,32.8920449 L57.226,10.2121204 L57.2266667,9.78412037 L57.613,9.99812037 L58,9.78412037 Z M57.2266667,11.0954 L17.0133333,33.34768 L17.0133333,82.8642133 L57.2266667,60.6115467 L57.2266667,11.0954 Z M58,11.0954 L58,60.6115467 L98.2133333,82.8638267 L98.2133333,33.34768 L58,11.0954 Z" id="path-2"></path>
        <linearGradient x1="50%" y1="0%" x2="50%" y2="100%" id="linearGradient-3">
            <stop stop-color="#89BEE5" offset="0%"></stop>
            <stop stop-color="#3172B9" offset="100%"></stop>
        </linearGradient>
        <linearGradient x1="50%" y1="0%" x2="50%" y2="100%" id="linearGradient-4">
            <stop stop-color="#3172B9" offset="0%"></stop>
            <stop stop-color="#89BEE5" offset="100%"></stop>
        </linearGradient>
        <linearGradient x1="50%" y1="0%" x2="50%" y2="100%" id="linearGradient-5">
            <stop stop-color="#F3F6FF" offset="0%"></stop>
            <stop stop-color="#90ACD4" offset="100%"></stop>
        </linearGradient>
        <linearGradient x1="50%" y1="0%" x2="50%" y2="100%" id="linearGradient-6">
            <stop stop-color="#90ACD4" offset="0%"></stop>
            <stop stop-color="#F3F6FF" offset="100%"></stop>
        </linearGradient>
        <linearGradient x1="50%" y1="0%" x2="50%" y2="100%" id="linearGradient-7">
            <stop stop-color="#FFFFFF" offset="0%"></stop>
            <stop stop-color="#E4DBF1" offset="100%"></stop>
        </linearGradient>
        <path d="M98.9866667,32.5974537 L98.9866667,83.8812884 L57.999,106.560454 L58,106.989213 L57.613,106.774454 L57.2266667,106.989213 L57.226,106.560454 L16.24,83.8812884 L16.24,32.5974537 L57.613,55.4904537 L98.9866667,32.5974537 Z M98.2133333,33.9087333 L58,56.1610133 L58,105.67716 L98.2133333,83.42488 L98.2133333,33.9087333 Z M17.0133333,33.9087333 L17.0133333,83.42488 L57.2266667,105.67716 L57.2266667,56.1610133 L17.0133333,33.9087333 Z" id="path-8"></path>
        <linearGradient x1="50%" y1="0%" x2="50%" y2="100%" id="linearGradient-9">
            <stop stop-color="#EAF1F3" offset="0%"></stop>
            <stop stop-color="#DEE8F5" offset="100%"></stop>
        </linearGradient>
        <linearGradient x1="50%" y1="0%" x2="50%" y2="100%" id="linearGradient-10">
            <stop stop-color="#ADD4E0" offset="0%"></stop>
            <stop stop-color="#D9E8F2" offset="100%"></stop>
        </linearGradient>
        <linearGradient x1="50%" y1="0%" x2="50%" y2="100%" id="linearGradient-11">
            <stop stop-color="#E6EFF1" offset="0%"></stop>
            <stop stop-color="#B1D3EB" offset="100%"></stop>
        </linearGradient>
        <linearGradient x1="50%" y1="0%" x2="50%" y2="99.3298084%" id="linearGradient-12">
            <stop stop-color="#C6D9E6" offset="0%"></stop>
            <stop stop-color="#D7E4EE" offset="100%"></stop>
        </linearGradient>
        <linearGradient x1="50%" y1="32.1798912%" x2="96.3065256%" y2="70.6482108%" id="linearGradient-13">
            <stop stop-color="#B6D5EC" offset="0%"></stop>
            <stop stop-color="#DAE7F2" offset="100%"></stop>
        </linearGradient>
    </defs>
    <g id="App" stroke="none" stroke-width="1" fill="none" fill-rule="evenodd">
        <circle id="Oval-Copy-8" cx="58" cy="58" r="58"></circle>
        <g id="Shape" fill-rule="nonzero">
            <use fill="url(#linearGradient-1)" xlink:href="#path-2"></use>
            <use fill="#FFFFFF" xlink:href="#path-2"></use>
        </g>
        <polygon id="Rectangle-Copy-2" fill="#3172B9" points="25 44 61 24 63 24 61 62 26 83 25 82"></polygon>
        <polygon id="Rectangle" fill="url(#linearGradient-3)" points="26 45 63 24 63 62 26 83"></polygon>
        <polygon id="Rectangle" fill="url(#linearGradient-4)" points="26 48 63 27 63 62 26 83"></polygon>
        <polygon id="Rectangle" fill="#3172B9" points="29 51 57 35 57 57 29 73"></polygon>
        <path d="M35.4879833,52.7091237 L49.7769453,44.1917816 C49.9232227,44.1045888 50.0893437,44.0561958 50.259563,44.0511893 L52,44 L52,44 L50.1740061,64.6945972 L49,78 L36,88 L35.2928932,87.2928932 C35.1053568,87.1053568 35,86.8510029 35,86.5857864 L35,53.5680992 C35,53.2158065 35.1853725,52.8895035 35.4879833,52.7091237 Z" id="Path-12-Copy-2" fill="#90ACD4"></path>
        <path d="M36.2548694,52.9154595 L36.6998966,52.6651317 L36.6998966,52.6651317 L52,44.0588235 L52,78.4151525 C52,78.7764258 51.8051382,79.1096098 51.4902612,79.2867281 L36,88 L36,88 L36,53.3512473 C36,53.1706106 36.0974309,53.0040187 36.2548694,52.9154595 Z" id="Path-12-Copy" fill="url(#linearGradient-5)"></path>
        <polygon id="Path-12-Copy" fill="url(#linearGradient-6)" points="36 55 52 46 52 77 36 86"></polygon>
        <path d="M41.1290224,63.6369723 C41.2819498,63.801175 41.3873756,64.0038525 41.4340282,64.2233357 L41.4603885,64.3473512 C41.7424341,65.6742715 41.3075971,67.051879 40.3148836,67.976426 C39.8145268,68.4424248 39.0311409,68.4145722 38.5651421,67.9142155 C38.4122147,67.7500128 38.3067889,67.5473352 38.2601363,67.3278521 L38.233776,67.2038366 C37.9517304,65.8769162 38.3865674,64.4993088 39.379281,63.5747618 C39.8796377,63.108763 40.6630236,63.1366156 41.1290224,63.6369723 Z M45.5429145,61.2314643 C45.6958419,61.395667 45.8012677,61.5983446 45.8479203,61.8178277 L45.8742806,61.9418432 C46.1563262,63.2687635 45.7214892,64.646371 44.7287756,65.570918 C44.2284189,66.0369168 43.445033,66.0090642 42.9790342,65.5087075 C42.8261068,65.3445048 42.720681,65.1418272 42.6740284,64.9223441 L42.6476681,64.7983286 C42.3656225,63.4714083 42.8004595,62.0938008 43.793173,61.1692538 C44.2935298,60.703255 45.0769157,60.7311076 45.5429145,61.2314643 Z M41.1290224,57.6369723 C41.2819498,57.801175 41.3873756,58.0038525 41.4340282,58.2233357 L41.4603885,58.3473512 C41.7424341,59.6742715 41.3075971,61.051879 40.3148836,61.976426 C39.8145268,62.4424248 39.0311409,62.4145722 38.5651421,61.9142155 C38.4122147,61.7500128 38.3067889,61.5473352 38.2601363,61.3278521 L38.233776,61.2038366 C37.9517304,59.8769162 38.3865674,58.4993088 39.379281,57.5747618 C39.8796377,57.108763 40.6630236,57.1366156 41.1290224,57.6369723 Z M45.5429145,55.2314643 C45.6958419,55.395667 45.8012677,55.5983446 45.8479203,55.8178277 L45.8742806,55.9418432 C46.1563262,57.2687635 45.7214892,58.646371 44.7287756,59.570918 C44.2284189,60.0369168 43.445033,60.0090642 42.9790342,59.5087075 C42.8261068,59.3445048 42.720681,59.1418272 42.6740284,58.9223441 L42.6476681,58.7983286 C42.3656225,57.4714083 42.8004595,56.0938008 43.793173,55.1692538 C44.2935298,54.703255 45.0769157,54.7311076 45.5429145,55.2314643 Z M49.9655315,53.075804 C50.1184589,53.2400067 50.2238847,53.4426843 50.2705372,53.6621674 L50.2968975,53.7861829 C50.5789432,55.1131033 50.1441061,56.4907107 49.1513926,57.4152577 C48.6510359,57.8812565 47.8676499,57.8534039 47.4016511,57.3530472 C47.2487237,57.1888445 47.1432979,56.986167 47.0966453,56.7666838 L47.070285,56.6426683 C46.7882394,55.315748 47.2230764,53.9381406 48.21579,53.0135935 C48.7161467,52.5475947 49.4995327,52.5754473 49.9655315,53.075804 Z" id="Combined-Shape" fill="#90ACD4"></path>
        <path d="M59.2619063,27.0352595 C59.4664196,27.0388293 59.6264227,27.3733049 59.6192831,27.7823316 C59.6121435,28.1913583 59.4405649,28.5200461 59.2360515,28.5164763 C59.0315382,28.5129065 58.8715351,28.1784309 58.8786747,27.7694042 C58.8858143,27.3603775 59.0573929,27.0316897 59.2619063,27.0352595 Z M60.7616834,26.1876649 C60.9661967,26.1912347 61.1261998,26.5257103 61.1190602,26.934737 C61.1119206,27.3437637 60.940342,27.6724515 60.7358286,27.6688817 C60.5313153,27.6653119 60.3713122,27.3308363 60.3784518,26.9218096 C60.3855914,26.5127829 60.55717,26.1840951 60.7616834,26.1876649 Z M62.2614604,25.3400703 C62.4659738,25.3436401 62.6259769,25.6781156 62.6188373,26.0871424 C62.6116977,26.4961691 62.4401191,26.8248568 62.2356057,26.821287 C62.0310924,26.8177173 61.8710893,26.4832417 61.8782289,26.074215 C61.8853685,25.6651883 62.0569471,25.3365005 62.2614604,25.3400703 Z" id="Combined-Shape" fill="#508DC9"></path>
        <g id="Shape" fill-rule="nonzero">
            <use fill="url(#linearGradient-7)" xlink:href="#path-8"></use>
            <use fill="#FFFFFF" xlink:href="#path-8"></use>
        </g>
        <g id="Star-Copy" transform="translate(62.760000, 50.280000)">
            <polygon id="Path-9" fill="#7EB4E8" points="7.34666667 39.44 5.8 38.6666667 7.73333333 23.2 10.0533333 25.1333333"></polygon>
            <polygon id="Path-8" fill="#9FCFDF" points="18.9466667 8.89333333 30.5466667 4.25333333 31.7066667 4.64 19.3333333 9.66666667"></polygon>
            <polygon id="Path" fill="url(#linearGradient-9)" points="1.54666667 22.4266667 11.9866667 14.3066667 16.6266667 0.773333333 21.2666667 8.89333333 31.7066667 4.64 24.36 18.56 26.2933333 28.6133333 16.6266667 28.6133333 7.34666667 39.44 8.89333333 26.68"></polygon>
            <path d="M31.7066667,4.64 L25.4463333,16.5 L21.6533333,22.4266667 L31.4303333,4.752 L31.7066667,4.64 Z" id="Combined-Shape" fill="url(#linearGradient-10)"></path>
            <path d="M16.5606533,0.966506667 L21.6533333,22.4266667 L11.6516533,14.5675067 L11.9866667,14.3066667 L16.5606533,0.966506667 Z" id="Combined-Shape" fill="url(#linearGradient-11)"></path>
            <path d="M21.6533333,22.4266667 L8.89333333,26.68 L1.54666667,22.4266667 L21.6533333,22.4266667 Z" id="Combined-Shape" fill="url(#linearGradient-12)"></path>
            <path d="M21.6533333,22.4266667 L26.225,28.6126667 L16.705,28.6126667 L21.6533333,22.4266667 Z" id="Combined-Shape" fill="url(#linearGradient-13)"></path>
            <polygon id="Path-7" fill="#B3D5EA" points="1.54666667 22.4266667 0 21.6533333 10.44 13.5333333 11.9866667 14.3066667"></polygon>
            <polygon id="Path-7" fill="#71BEDB" points="16.6266667 0.773333333 15.08 0 10.44 13.5333333 11.9866667 14.3066667"></polygon>
        </g>
    </g>
</svg>