
<svg width="161.496" height="149.06" viewBox="0 0 42.729 39.439" xml:space="preserve" xmlns:xlink="http://www.w3.org/1999/xlink" xmlns="http://www.w3.org/2000/svg">
  <defs>
    <linearGradient id="a">
      <stop offset="0" stop-color="#81b0e9"/>
      <stop offset="1" stop-color="#4780ce"/>
    </linearGradient>
    <linearGradient xlink:href="#a" id="c" x1="102.468" y1="99.206" x2="113.925" y2="91.275" gradientUnits="userSpaceOnUse"/>
    <clipPath clipPathUnits="userSpaceOnUse" id="b">
      <path d="M104.796 87.316s-2.574.028-3.293.19l-.323.545.076.042-4.396 7.982h.003a16.983 16.983 0 0 1 3.326-.253l4.163-7.514zm.685.058-.166.282.06.033-4.518 8.155c1.112.057 2.241.206 3.376.433l4.63-8.241.023.013.117-.228zm3.97.756-.105.177.035.02-4.539 8.082c1.47.328 2.945.785 4.405 1.333l.103.039c.28.106.558.217.837.33l.366.147c.187.078.373.158.56.239.228.098.456.197.683.3l.247.113c3.532 1.617 6.872 3.683 9.657 5.744l1.614 1.143 3.862-8.97-7.956-6.394zm-13.518.305s-1.78 7.402-2.914 9.471a7.736 7.736 0 0 1 2.667-1.517c.128-.044.258-.084.389-.122l4-7.263c.025-.05.073-.134.063-.13zm4.143 7.983c-1.062-.016-2.1.06-3.105.242-2.23.437-4.1 1.675-5.078 3.752-1.15 3.697-.405 8.715-.405 8.715l10.949 4.27 18.937-8.185.006-.01c-5.77-4.307-14.072-8.675-21.304-8.784z" stroke-width=".265"/>
    </clipPath>
  </defs>
  <g clip-path="url(#b)" transform="translate(-83.48 -88.594)">
    <path d="M96.927 91.4s-2.52 4.01-4.031 6.806c-2.426 4.491-1.46 7.238-.255 9.112 2.646 3.44 7.825 4.502 12.323 3.179l16.472-5.316 4.773-8.178z" fill="#99c7fa"/>
    <path d="m101.424 88.951-1.058.265c-4.498 1.323-5.82 5.556-3.44 9.26 2.646 3.44 8.203 5.292 12.7 3.969l16.405-5.556s-14.023-10.32-24.607-7.938z" fill="url(#c)"/>
  </g>
  <path d="M34.964 21.274a11.906 11.906 0 0 0-12.7-3.969l-1.905.554-13.584 5.943s13.108 9.378 23.956 6.733l.794-.265c4.498-1.323 6.085-5.556 3.44-8.996z" fill="#5f96df"/>
  <path d="M29.67 29.487a11.906 11.906 0 0 0-12.7-3.968L.566 30.81s14.023 10.584 24.87 7.938l.794-.265c4.498-1.323 6.086-5.556 3.44-8.996z" fill="none" stroke="#356dab" stroke-width=".463"/>
  <path d="M32.3 25.099a11.906 11.906 0 0 0-12.7-3.97L4.875 25.915s-1.4.72-.887 1.076c3.113 2.163 14.765 9.64 24.077 7.369l.794-.265c4.497-1.323 6.085-5.556 3.44-8.995z" fill="none" stroke="#356dab" stroke-width=".463"/>
  <path d="m21.809 25.108 4.583-8.068M25.586 26.028l4.554-8.14M28.656 27.984l4.582-8.226M30.72 30.829l4.708-8.372" fill="none" stroke="#356dab" stroke-width=".463" stroke-linecap="round"/>
  <path d="m30.31 35.463 5.364-8.735" fill="none" stroke="#356dab" stroke-width=".397" stroke-linecap="round"/>
  <path d="m.07 30.736 4.767-7.902 16.054-5.146-4.48 8.01z" fill="#356dab"/>
</svg>