<svg width="1426" height="390" xmlns="http://www.w3.org/2000/svg"><g fill="none"><path d="M1395.12 53.245 1293.1 1.609c-5.03-2.546-9.23-.692-9.23 4.22v30.935l115.06 43.389V60.761c0-3.091-1.69-6.444-3.81-7.516Zm-42.68 99.905 70.32-.04c1.57 0 2.83-2.151 2.83-4.808v-16.718l-79.04-10.165v24.634c0 3.945 2.67 7.1 5.89 7.097Zm-68.57-98.001V86.08c0 4.913 4.2 9.682 9.23 10.636l132.49 24.932v-16.717c0-2.654-1.26-5.207-2.83-5.705l-138.89-44.077Z" fill="#5BEA83"/><path d="M130.158 281.168h-1.333l-.09 1.337c-.765 11.507-5.063 22.021-12.096 29.605a41.63 41.63 0 0 1-14.826 10.198c-6.404 2.632-13.814 3.966-22.025 3.966-9.343 0-17.784-1.936-25.083-5.763-6.698-3.51-12.462-8.606-17.126-15.157-8.445-11.858-13.095-28.281-13.095-46.257 0-17.858 4.65-34.205 13.095-46.035 4.671-6.537 10.421-11.629 17.126-15.136 7.302-3.822 15.74-5.759 25.083-5.759 15.19 0 27.361 4.558 36.172 13.547 8.625 8.793 11.719 19.579 12.8 25.227l.223 1.165h24.005l-.202-1.613a66.987 66.987 0 0 0-22.315-42.249c-13.296-11.607-30.818-17.739-50.669-17.739-11.499 0-22.355 2.234-32.23 6.638a73.293 73.293 0 0 0-25.115 18.485c-7.032 7.931-12.498 17.376-16.253 28.069-3.827 10.898-5.768 22.81-5.768 35.4 0 12.651 1.941 24.606 5.768 35.539 3.751 10.722 9.221 20.188 16.249 28.138a73.198 73.198 0 0 0 25.119 18.51c9.871 4.407 20.717 6.645 32.23 6.645 20.282 0 37.879-6.369 50.892-18.414a66.903 66.903 0 0 0 15.02-20.665 79.807 79.807 0 0 0 7.076-26.112l.162-1.578h-22.794v.008Zm602.017-5.777c-2.875-6.096-7.187-11.034-13.123-15.14-11.255-7.781-27.358-11.772-45.997-16.394-1.438-.359-2.832-.696-4.212-1.033-11.111-2.707-20.706-5.045-27.35-9.219-7.051-4.428-10.199-10.546-10.199-19.837 0-6.433 3.005-11.797 8.682-15.512 6.081-3.977 15.201-6.078 26.377-6.078 12.847 0 22.366 2.732 29.107 8.358 6.468 5.379 10.335 13.476 11.859 24.7l.169 1.24h23.968l-.126-1.549c-.718-8.706-2.806-16.609-6.238-23.487a51.107 51.107 0 0 0-13.713-17.097c-11.215-9.047-26.793-13.827-45.048-13.827-9.257 0-17.705 1.076-25.108 3.227-7.237 2.091-13.49 5.192-18.578 9.212-10.098 7.982-15.434 19.453-15.434 33.165 0 7.961 1.797 15.061 5.297 21.053 3.101 5.296 7.665 9.94 13.569 13.802 10.967 7.172 25.154 10.865 37.57 13.762 17.752 4.095 30.904 7.384 38.752 12.411 3.752 2.406 6.257 5.149 7.884 8.638 1.628 3.489 2.404 7.806 2.404 13.501 0 7.709-2.874 14.196-8.319 18.754-6.522 5.464-16.53 8.247-29.797 8.247-16.232 0-28.78-3.848-37.301-11.439-7.438-6.626-11.833-16.097-13.065-28.149l-.133-1.29h-24.016l.094 1.524c1.15 18.836 9.106 34.51 22.998 45.328 13.188 10.266 30.969 15.692 51.416 15.692 10.389 0 19.764-1.352 27.914-4.016 7.597-2.485 14.123-6.118 19.405-10.797a43.389 43.389 0 0 0 11.262-15.599 46.435 46.435 0 0 0 3.613-18.244c.006-9.585-1.496-17.399-4.583-23.907Zm146.475-29.899c-3.05-8.731-7.48-16.387-13.17-22.756-11.14-12.446-26.62-19.302-43.62-19.302-10.34 0-19.55 2.173-27.4 6.454a51.026 51.026 0 0 0-14.43 11.834V207.12h-23.98v182.412h23.98v-60.404a46.657 46.657 0 0 0 14.42 12.447c7.67 4.224 16.89 6.364 27.41 6.364 17 0 32.49-6.856 43.62-19.302 5.69-6.369 10.12-14.024 13.17-22.756 3.18-9.126 4.8-19.288 4.8-30.193 0-10.904-1.62-21.066-4.8-30.196Zm-29.37 65.434c-7.29 10.281-17.69 15.717-30.06 15.717-11.76 0-21.64-4.769-28.57-13.787-6.92-9.019-10.62-21.903-10.62-37.168 0-15.264 3.67-28.123 10.62-37.17 6.95-9.047 16.81-13.788 28.57-13.788 12.37 0 22.77 5.436 30.06 15.717 6.57 9.262 10.19 21.777 10.19 35.241 0 13.465-3.62 25.991-10.19 35.238ZM963.7 203.427c-19.88 0-36.52 6.601-48.11 19.087-11.75 12.651-17.97 31.036-17.97 53.167 0 21.261 6.18 39.301 17.89 52.167 11.94 13.139 28.97 20.081 49.23 20.081 16.17 0 29.88-4.529 40.71-13.458 9.6-7.907 16.61-19.184 20.3-32.631l.49-1.814h-24.1l-.28 1.075a33.138 33.138 0 0 1-10.02 16.036c-7.05 6.29-16.44 9.478-27.89 9.478-13.2 0-24.19-4.788-31.78-13.835-6.56-7.817-10.29-18.477-10.57-30.16h106.32v-1.434c0-24.502-5.34-43.658-15.88-56.933-10.97-13.805-27.24-20.826-48.34-20.826Zm-42.06 57.918c.35-9.653 4.52-18.61 11.78-25.355 7.81-7.265 18.57-11.267 30.28-11.267 5.7-.05 11.36.98 16.67 3.034 4.73 1.85 9.04 4.64 12.66 8.2 6.71 6.641 10.55 15.61 10.89 25.388h-82.28Zm235.82-32.699a38.308 38.308 0 0 0-10.14-14.29c-8.14-7.146-19.45-10.922-32.7-10.922-10.7 0-20.37 2.18-28.75 6.476a49.394 49.394 0 0 0-14.66 11.31v-14.1h-23.98v137.133h23.98V259.1c-.04-4.738.89-9.436 2.73-13.805a31.41 31.41 0 0 1 7.69-10.84c6.93-6.361 16.53-9.725 27.72-9.725 9.51 0 16.73 2.869 21.45 8.502 4.19 4.999 6.4 12.303 6.4 21.131v89.89h23.98v-95.157c-.02-7.624-1.27-14.505-3.72-20.45ZM173.819 153.15h-1.437v191.103h23.983V153.15h-1.438zm107.906 50.277c-19.883 0-36.521 6.601-48.117 19.087-11.747 12.651-17.967 31.036-17.967 53.167 0 21.261 6.184 39.301 17.885 52.167 11.948 13.139 28.978 20.081 49.231 20.081 16.17 0 29.887-4.529 40.721-13.458 9.591-7.907 16.609-19.184 20.293-32.631l.496-1.814h-24.106l-.276 1.075a33.18 33.18 0 0 1-10.019 16.036c-7.054 6.29-16.444 9.478-27.9 9.478-13.195 0-24.184-4.788-31.777-13.835-6.555-7.817-10.281-18.477-10.562-30.16h106.304v-1.434c0-24.502-5.34-43.658-15.877-56.933-10.956-13.805-27.224-20.826-48.329-20.826Zm-42.065 57.918c.359-9.653 4.524-18.61 11.779-25.355 7.816-7.265 18.571-11.267 30.286-11.267 5.698-.05 11.354.98 16.667 3.034a37.513 37.513 0 0 1 12.66 8.2c6.716 6.641 10.554 15.61 10.895 25.388H239.66Zm246.407 64.764c-8.434 0-9.857-4.185-9.857-13.565v-65.291c0-15.466-5.132-27.07-15.262-34.492-8.445-6.189-20.124-9.323-34.717-9.323-18.848 0-33.42 4.485-43.338 13.332a41.32 41.32 0 0 0-10.561 14.866c-2.303 5.462-3.651 11.665-3.996 18.446l-.079 1.506h23.972l.09-1.337c.665-9.804 3.137-15.882 8.024-19.701 5.078-3.966 13.296-5.816 25.895-5.816 9.638 0 16.671 1.832 20.897 5.447 3.431 2.94 5.102 7.06 5.102 12.6 0 12.081-8.721 14.842-31.802 19.127-18.108 3.421-32.238 7.068-42.346 13.737-5.444 3.586-9.401 7.857-12.092 13.039-2.875 5.5-4.251 11.93-4.251 19.65 0 11.625 4.312 21.515 12.462 28.658 8.15 7.143 19.714 10.951 33.297 10.951 20.35 0 36-6.63 45.444-19.206 1.89 6.186 4.639 10.363 8.556 13.031 3.856 2.632 8.847 3.805 16.171 3.805 4.269 0 7.28-.326 12.854-2.18l.984-.327v-17.387l-1.606.186a33.106 33.106 0 0 1-3.841.244Zm-33.837-35.141c0 11.833-4.061 20.945-12.07 27.098-7.313 5.615-17.878 8.588-30.545 8.588-8.143 0-14.288-1.725-18.255-5.121-3.738-3.195-5.635-7.989-5.635-14.243 0-7.501 2.688-12.701 8.714-16.853 5.642-3.894 14.403-6.949 28.389-9.915 14.5-2.947 24.357-5.988 29.395-9.061l.007 19.507Zm127.401-86.803c-4-.518-8.031-.758-12.064-.717-9.397 0-17.507 2.991-24.109 8.889-4.671 4.182-8.685 9.826-12.178 17.166V207.12h-23.983v137.133h24.001v-73.054c0-12.31 3.91-23.444 11.014-31.344a36.5 36.5 0 0 1 12.577-9.101 40.424 40.424 0 0 1 16.336-3.292c2.686.007 5.367.229 8.017.664l1.668.269v-24.072l-1.279-.158Zm726.789-51.015h-22.54v69.099a47.58 47.58 0 0 0-14.36-12.447c-7.59-4.224-16.66-6.368-26.95-6.368-17.23 0-32.88 6.856-44.07 19.299-11.81 13.128-18.05 31.44-18.05 52.955 0 21.515 6.24 39.825 18.05 52.952 11.19 12.443 26.84 19.299 44.07 19.299 10.11 0 19.17-2.176 26.95-6.454a51.505 51.505 0 0 0 14.36-11.833v14.619h23.97V153.15h-1.43Zm-33.15 159.706c-6.93 9.018-16.81 13.787-28.58 13.787-12.36 0-22.76-5.436-30.05-15.717-6.57-9.262-10.2-21.776-10.2-35.238 0-13.461 3.63-25.979 10.2-35.241 7.29-10.281 17.69-15.717 30.05-15.717 11.77 0 21.65 4.769 28.58 13.788 6.92 9.018 10.62 21.902 10.62 37.17 0 15.269-3.71 28.121-10.64 37.168h.02Z" fill="#000"/></g></svg>